<?xml version="1.0" encoding="utf-8"?>
<!-- Generator: Adobe Illustrator 28.2.0, SVG Export Plug-In . SVG Version: 6.00 Build 0)  -->
<svg version="1.1" id="Layer_1" xmlns="http://www.w3.org/2000/svg" xmlns:xlink="http://www.w3.org/1999/xlink" x="0px" y="0px"
	 viewBox="0 0 750 500" style="enable-background:new 0 0 750 500;" xml:space="preserve">
<style type="text/css">
	.st0{opacity:0.23;fill:#708FEA;enable-background:new    ;}
	.st1{fill:#5376DB;}
	.st2{fill:#708FEA;}
	.st3{fill:#8CA4EA;}
	.st4{fill:#FFD000;}
	.st5{fill:none;stroke:#FFFFFF;stroke-width:0.8954;stroke-miterlimit:10;}
	.st6{fill:#01124A;}
	.st7{font-family:'Montserrat-Bold';}
	.st8{font-size:11.3009px;}
	.st9{fill:#021D75;}
	.st10{fill:#FFFFFF;}
	.st11{font-size:16.3465px;}
	.st12{fill:#FF5757;}
	.st13{font-size:5.7166px;}
	.st14{font-size:48.1453px;}
	.st15{font-size:8.8126px;}
	.st16{fill:#303A9E;}
	.st17{font-size:10.9561px;}
	.st18{font-family:'Montserrat-Medium';}
	.st19{opacity:0.19;}
	.st20{fill:url(#SVGID_1_);}
	.st21{fill:url(#SVGID_00000183951371837103647780000011063301479027167877_);}
	.st22{fill:url(#SVGID_00000180358103270433046790000016722433364798949565_);}
	.st23{font-size:18.0137px;}
	.st24{fill:#E9A879;}
	.st25{fill:#E79E6C;}
	.st26{fill:#4E609C;}
	.st27{fill:#00005E;}
	.st28{fill:#F5AF00;}
	.st29{fill:#E27F5C;}
	.st30{opacity:0.5;fill:#FFD000;enable-background:new    ;}
	.st31{fill:#BCD8E0;}
	.st32{fill:#E6965F;}
	.st33{fill:#EDBA95;}
	.st34{fill:#F1CEB7;}
	.st35{opacity:0.5;fill:#01124A;enable-background:new    ;}
	.st36{fill:none;stroke:#708FEA;stroke-width:2;stroke-miterlimit:10;}
</style>
<g id="BACKGROUND">
	<g>
		<path class="st0" d="M670.2,440.2c8.7-11.1,14.2-25,18-38.8c18.6-67.6,4-147-39.9-202.3c-14-17.7-28.7-18.7-49.3-19.7
			c-21.4-1.1-42.7-8.5-60.3-20.6c-23.7-16.2-41.3-40.9-66.6-54.6c-37.3-20.2-85.1-12.2-121,10.6c-39.5,25-71.9,67.6-118.5,71.1
			c-34.5,2.6-68-17.8-102.4-13.7c-27.8,3.3-52.1,23-65.3,47.8s-16,54-12.9,81.9c6.2,54.2,35.6,105.3,79,138.4L670.2,440.2
			L670.2,440.2z"/>
		<path class="st0" d="M531.8,111.5c3,19.5,20.6,33.8,38.9,41.2c18.3,7.4,38.4,9.8,56.9,16.7c12.9,4.8,25.5,12.6,33.6,23.4
			c6.7,8.9,20,9.4,26.8,0.6c7.4-9.6,11.7-21.7,10.9-33.7c-1.6-23.6-14.9-45.5-33.6-60c-18.6-14.5-42.1-22-65.7-23.8
			c-13.7-1.1-27.8-0.2-40.5,4.9C546.3,85.9,529.7,97.9,531.8,111.5z"/>
	</g>
</g>
<g id="OBJECTS">
	<g>
		<g>
			<path class="st1" d="M461.1,359.4c0.3-13.3,5.2-26.1,7.7-39.2c5-25.6,0-51-12.9-73.7c6.3,15.8,4.6,33.5,2,50.3s-5.8,34-2.4,50.6
				c0.6,2.8,1.4,5.7,3.5,7.7L461.1,359.4z"/>
			<path class="st1" d="M454,385.1c0.4-18.1-2.7-36.3-9.2-53.2c-3.7-9.8-8.6-19.2-11.2-29.4c-2.6-10.3-2.7-21-4-31.5
				c-0.4-3.6-1-7.3-3.4-10.1c2.7,5.7,1.8,12.8,1.3,19c-0.4,5.3-0.8,10.5-1.1,15.8c-0.8,11.4-1.6,23.4,3.1,33.8
				c1.9,4.2,4.5,7.9,6.8,11.9c7.6,13.2,10.6,28.5,11.9,43.6L454,385.1L454,385.1z"/>
			<path class="st2" d="M449.6,385.1h9.2c1.8-14.6,1.2-29.4,0.5-44.1c-0.2-5.1-0.5-10.3-1.8-15.2c-1.3-5.2-3.6-10-5.4-15
				c-4.6-12.8-5.7-26.7-3.2-40.1c0.7-4,1.8-7.9,2.3-11.9c0.5-4.3,0.4-8.7,0.3-13.1c-0.2-6.6-0.4-13.4-2.5-19.7
				c-3.3-9.8-11.5-16.9-19-24.1c8.4,9.1,10,22.7,8.8,35s-4.6,24.5-4.5,36.9c0.1,12.7,4,24.9,7.7,37.1
				C449.3,334.9,455.6,360.7,449.6,385.1z"/>
			<path class="st1" d="M471.6,385.1c-0.8-20,7.4-39.7,16.3-57.9c2.4-4.9,4.8-9.9,6-15.2c2-9.3-0.8-18.6-4.2-27.5
				c3.5,12.1-0.6,25.1-6.6,36.2s-14.1,20.9-19.5,32.3c-3.9,8.4-6.3,17.5-7.1,26.7c-0.1,1.8-0.2,3.7,0,5.5L471.6,385.1L471.6,385.1z"
				/>
			<path class="st2" d="M459.6,382.4c-4.4-2.6-4.3-6.2-5-11.2c-0.7-5-1-10.2-0.8-15.3c0.4-10.2,2.6-20.3,6.6-29.7
				c1.8-4.2,3.9-8.2,5.6-12.5c4.6-11.7,5.7-24.7,3.5-37c-3.1-16.7-12.1-31.9-15.1-48.7c-1.2-6.7-1.4-14,2.1-19.8
				c3.2,16.7,10.9,32.6,20.1,46.8c3.2,4.9,6.6,9.7,8.5,15.2c1.1,3.2,1.6,6.6,1.9,10c1.2,15.2-3.4,30.3-9.2,44.5
				s-12.9,27.8-17.3,42.4c-1.4,4.6-5.1,8.8-3.9,13.5c0,0,0-0.1,0-0.1"/>
		</g>
		<path class="st3" d="M458.8,379.9h-0.2h-18.9c-1.9,0-3.4,1.5-3.4,3.4v32.2c0,8,3,15.7,8.8,21.3c0.3,0.3,0.6,0.6,1,0.9
			c2,1.8,4.6,2.7,7.2,2.7l0,0h11.1l0,0c2.7,0,5.2-0.9,7.2-2.7c0.3-0.3,0.6-0.6,1-0.9c5.7-5.6,8.8-13.3,8.8-21.3v-32.2
			c0-1.9-1.5-3.4-3.4-3.4H458.8z"/>
	</g>
	<g>
		<g>
			<path class="st4" d="M213,290.5H108.3c-4.1,0-8.2-3.3-9.3-7.4l-14.8-58.6c-1-4.1,1.4-7.4,5.5-7.4h104.8c4.1,0,8.2,3.3,9.3,7.4
				l14.8,58.6C219.6,287.2,217.1,290.5,213,290.5z"/>
			<g>
				<g>
					<polygon class="st5" points="124.1,249.1 104.7,249.1 99.7,229.6 119.2,229.6 					"/>
					<g>
						<text transform="matrix(0.9393 0 0.245 0.9695 127.2297 242.6149)" class="st6 st7 st8">TO-DO</text>
					</g>
				</g>
				<g>
					<polygon class="st5" points="131.4,278 112,278 107,258.5 126.5,258.5 					"/>
					<g>
						<text transform="matrix(0.9393 0 0.245 0.9695 134.5839 271.7145)" class="st6 st7 st8">TO-DO</text>
					</g>
				</g>
			</g>
		</g>
		<g>
			<g>
				<path class="st6" d="M159.6,74.2c0,0-8.2,11.3-6.8,23L218.1,415c1.1,5.1,3,10.1,5.9,14.5c3.4,5.2,8.6,10.4,15.8,10.6l156.3,0.1
					c0,0-5.6-6.6-5.1-19.6L175,102.3L166,77L159.6,74.2z"/>
				<path class="st9" d="M393.5,440.3l-138.9-4.7c-10-0.3-19.9-8.8-22.2-18.8L157.7,86.2c-2.3-10.1,4-17.9,13.9-17.6l138.9,4.7
					c10,0.3,19.9,8.8,22.2,18.8l74.7,330.6C409.7,432.8,403.4,440.7,393.5,440.3z"/>
				<path class="st2" d="M388.4,430.6l-132-1.2c-9.6-0.3-19.1-8.4-21.3-18.1l-22.8-101l-41.9-185.5l-6.6-29l-0.9-3.9
					c-2.2-9.7,3.8-17.2,13.4-16.9l132.4,4.5c9.6,0.3,19.1,8.4,21.3,18.1l0.8,3.5l6.6,29.1l41.3,182.1l23,101.4
					C403.9,423.4,398,431,388.4,430.6z"/>
				<g>
					<path class="st10" d="M337.4,130.3l-167.1-5.4l-6.6-29l-0.9-3.9c-2.2-9.7,3.8-17.2,13.4-16.9l132.4,4.5
						c9.6,0.3,19.1,8.4,21.3,18.1l0.8,3.5L337.4,130.3z"/>
					<g>
						<g>
							<g>
								<text transform="matrix(0.9683 3.280116e-02 0.2149 0.9766 233.649 122.319)" class="st9 st7 st11">JUNE</text>
							</g>
							<g>
								<g>
									<path class="st6" d="M292.4,117.6l0.3,1.6l-5.3,2l-0.3-1.5l3.7-1.3l-4.3-1.6l-0.3-1.5L292.4,117.6z"/>
								</g>
							</g>
							<g>
								<path class="st6" d="M221.3,113l0.3,1.5l-3.7,1.3l4.3,1.6l0.3,1.5l-6.2-2.4L216,115L221.3,113z"/>
							</g>
						</g>
						<g>
							<path class="st12" d="M254.4,265.7c0.6,2.9-1.2,5.2-4.1,5.1c-2.9-0.1-5.8-2.5-6.4-5.5c-0.6-2.9,1.2-5.2,4.1-5.1
								C250.9,260.3,253.7,262.8,254.4,265.7z"/>
							<g>
								<text transform="matrix(0.9683 3.280116e-02 0.2149 0.9766 204.5031 207.1527)" class="st10 st7 st13">SUN</text>
								<text transform="matrix(0.9683 3.280116e-02 0.2149 0.9766 219.7116 236.3883)" class="st10 st7 st13">6</text>
								<text transform="matrix(0.9683 3.280116e-02 0.2149 0.9766 221.0611 251.1845)" class="st10 st7 st13">13</text>
								<text transform="matrix(0.9683 3.280116e-02 0.2149 0.9766 222.7636 265.9893)" class="st10 st7 st13">20</text>
								<text transform="matrix(0.9683 3.280116e-02 0.2149 0.9766 226.3601 280.8588)" class="st10 st7 st13">27</text>
							</g>
							<g>
								<text transform="matrix(0.9683 3.280116e-02 0.2149 0.9766 242.3131 237.1525)" class="st10 st7 st13">7</text>
								<text transform="matrix(0.9683 3.280116e-02 0.2149 0.9766 243.0312 251.9278)" class="st10 st7 st13">14</text>
								<text transform="matrix(0.9683 3.280116e-02 0.2149 0.9766 246.8486 266.8043)" class="st10 st7 st13">21</text>
								<text transform="matrix(0.9683 3.280116e-02 0.2149 0.9766 248.6357 281.6124)" class="st10 st7 st13">28</text>
								<text transform="matrix(0.9683 3.280116e-02 0.2149 0.9766 224.9463 207.8443)" class="st10 st7 st13">MON</text>
							</g>
							<g>
								<text transform="matrix(0.9683 3.280116e-02 0.2149 0.9766 260.2812 223.013)" class="st10 st7 st13">1</text>
								<text transform="matrix(0.9683 3.280116e-02 0.2149 0.9766 262.0673 237.8212)" class="st10 st7 st13">8</text>
								<text transform="matrix(0.9683 3.280116e-02 0.2149 0.9766 263.527 252.6211)" class="st10 st7 st13">15</text>
								<text transform="matrix(0.9683 3.280116e-02 0.2149 0.9766 265.7288 267.4433)" class="st10 st7 st13">22</text>
								<text transform="matrix(0.9683 3.280116e-02 0.2149 0.9766 268.7382 282.2924)" class="st10 st7 st13">29</text>
								<text transform="matrix(0.9683 3.280116e-02 0.2149 0.9766 247.9217 208.6216)" class="st10 st7 st13">TUE</text>
							</g>
							<g>
								<text transform="matrix(0.9683 3.280116e-02 0.2149 0.9766 282.266 223.7568)" class="st10 st7 st13">2</text>
								<text transform="matrix(0.9683 3.280116e-02 0.2149 0.9766 285.2744 238.6059)" class="st10 st7 st13">9</text>
								<text transform="matrix(0.9683 3.280116e-02 0.2149 0.9766 286.3754 253.3936)" class="st10 st7 st13">16</text>
								<text transform="matrix(0.9683 3.280116e-02 0.2149 0.9766 288.7978 268.2233)" class="st10 st7 st13">23</text>
								<text transform="matrix(0.9683 3.280116e-02 0.2149 0.9766 291.575 283.065)" class="st10 st7 st13">30</text>
								<text transform="matrix(0.9683 3.280116e-02 0.2149 0.9766 267.7934 209.2938)" class="st10 st7 st13">WED</text>
							</g>
							<g>
								<text transform="matrix(0.9683 3.280116e-02 0.2149 0.9766 302.5378 224.4426)" class="st10 st7 st13">3</text>
								<text transform="matrix(0.9683 3.280116e-02 0.2149 0.9766 303.1546 239.2111)" class="st10 st7 st13">10</text>
								<text transform="matrix(0.9683 3.280116e-02 0.2149 0.9766 306.7527 254.083)" class="st10 st7 st13">17</text>
								<text transform="matrix(0.9683 3.280116e-02 0.2149 0.9766 308.5984 268.8936)" class="st10 st7 st13">24</text>
								<text transform="matrix(0.9683 3.280116e-02 0.2149 0.9766 290.4613 210.0607)" class="st10 st7 st13">THU</text>
							</g>
							<g>
								<text transform="matrix(0.9683 3.280116e-02 0.2149 0.9766 322.0587 225.1028)" class="st10 st7 st13">4</text>
								<text transform="matrix(0.9683 3.280116e-02 0.2149 0.9766 324.8026 239.9434)" class="st10 st7 st13">11</text>
								<text transform="matrix(0.9683 3.280116e-02 0.2149 0.9766 326.5893 254.7544)" class="st10 st7 st13">18</text>
								<text transform="matrix(0.9683 3.280116e-02 0.2149 0.9766 329.123 269.5879)" class="st10 st7 st13">25</text>
								<text transform="matrix(0.9683 3.280116e-02 0.2149 0.9766 313.3542 210.8352)" class="st10 st7 st13">FRI</text>
							</g>
							<g>
								<text transform="matrix(0.9683 3.280116e-02 0.2149 0.9766 344.8432 225.8737)" class="st10 st7 st13">5</text>
								<text transform="matrix(0.9683 3.280116e-02 0.2149 0.9766 345.9714 240.6595)" class="st10 st7 st13">12</text>
								<text transform="matrix(0.9683 3.280116e-02 0.2149 0.9766 348.981 255.512)" class="st10 st7 st13">19</text>
								<text transform="matrix(0.9683 3.280116e-02 0.2149 0.9766 351.1662 270.3332)" class="st10 st7 st13">26</text>
								<text transform="matrix(0.9683 3.280116e-02 0.2149 0.9766 334.0399 211.5349)" class="st10 st7 st13">SAT</text>
							</g>
						</g>
						<g>
							<text transform="matrix(0.9683 3.280116e-02 0.2149 0.9766 244.002 172.9464)" class="st10 st7 st14">21</text>
							<text transform="matrix(0.9683 3.280116e-02 0.2149 0.9766 250.0833 190.4243)" class="st10 st7 st15">MONDAY</text>
						</g>
					</g>
					<path class="st16" d="M330.8,101.1l-167-5.3l-0.9-3.9c-2.2-9.7,3.8-17.2,13.4-16.9l132.4,4.5c9.6,0.3,19.1,8.4,21.3,18.1
						L330.8,101.1z"/>
					<path class="st10" d="M388.4,430.6l-132-1.2c-9.6-0.3-19.1-8.4-21.3-18.1l-22.8-101c1.6-7.5,8.6-14.2,16.1-13.9l132,4.5
						c7.3,0.2,14.5,5,18.4,11.5l23,101.4C403.9,423.4,398,431,388.4,430.6z"/>
					<g>
						<g>
							<g>
								<g>
									<text transform="matrix(0.9683 3.280116e-02 0.2149 0.9766 251.9083 334.1266)" class="st6 st7 st17">8:30</text>
									<g>
										<text transform="matrix(0.9683 3.280116e-02 0.2149 0.9766 285.9408 335.3093)" class="st6 st18 st17">Lorem ipsum</text>
									</g>
								</g>
								<g>
									<text transform="matrix(0.9683 3.280116e-02 0.2149 0.9766 259.2552 366.4139)" class="st6 st7 st17">9:30</text>
									<g>
										<text transform="matrix(0.9683 3.280116e-02 0.2149 0.9766 293.0445 367.5892)" class="st6 st18 st17">Lorem ipsum</text>
									</g>
								</g>
								<g>
									<text transform="matrix(0.9683 3.280116e-02 0.2149 0.9766 261.6977 398.279)" class="st6 st7 st17">10:30</text>
									<g>
										<text transform="matrix(0.9683 3.280116e-02 0.2149 0.9766 300.1477 399.8697)" class="st6 st18 st17">Lorem ipsum</text>
									</g>
								</g>
							</g>
						</g>
						<g>
							<g>
								<g>
									
										<rect x="304.5" y="272.1" transform="matrix(3.380096e-02 -0.9994 0.9994 3.380096e-02 -52.0937 639.9601)" class="st2" width="0.8" height="149.6"/>
								</g>
								<g>
									
										<rect x="312.1" y="306.4" transform="matrix(3.380096e-02 -0.9994 0.9994 3.380096e-02 -79.0668 680.6202)" class="st2" width="0.8" height="149.6"/>
								</g>
							</g>
						</g>
					</g>
				</g>
				<g>
					<g>
						<path class="st2" d="M173.9,184.7c-0.6,0-1.1-0.5-1.3-1.1l-13.3-64.5c-0.1-0.7,0.3-1.4,1-1.6c0.7-0.1,1.4,0.3,1.6,1l13.3,64.5
							c0.1,0.7-0.3,1.4-1,1.6C174.1,184.7,174,184.7,173.9,184.7z"/>
					</g>
				</g>
			</g>
			<g class="st19">
				
					<linearGradient id="SVGID_1_" gradientUnits="userSpaceOnUse" x1="108.8419" y1="375.5409" x2="398.1847" y2="71.5312" gradientTransform="matrix(0.9994 3.380000e-02 3.380000e-02 -0.9994 -12.2608 512.8539)">
					<stop  offset="0" style="stop-color:#FFFFFF"/>
					<stop  offset="0.6475" style="stop-color:#708FEA"/>
				</linearGradient>
				<path class="st20" d="M212.6,311.9c7.9,8.5,15.8,16.9,23.7,25.4c28.9,30.9,57.8,61.8,86.6,92.7l65.4,0.6
					c8.8,0.3,14.5-6,13.7-14.5l-3.5-3.7C326.8,335.6,255,258.8,183.2,181.9l29,128.4L212.6,311.9z"/>
				
					<linearGradient id="SVGID_00000096781487674144343640000013211011370422841497_" gradientUnits="userSpaceOnUse" x1="61.5406" y1="330.5225" x2="350.882" y2="26.5142" gradientTransform="matrix(0.9994 3.380000e-02 3.380000e-02 -0.9994 -12.2608 512.8539)">
					<stop  offset="0" style="stop-color:#FFFFFF"/>
					<stop  offset="0.6475" style="stop-color:#708FEA"/>
				</linearGradient>
				<path style="fill:url(#SVGID_00000096781487674144343640000013211011370422841497_);" d="M217,331.2l18.1,80.1
					c2.2,9.7,11.7,17.8,21.3,18.1l52.8,0.5C278.4,397,247.7,364.1,217,331.2z"/>
				
					<linearGradient id="SVGID_00000154427212086264149840000013767764664306669237_" gradientUnits="userSpaceOnUse" x1="196.3395" y1="458.8166" x2="485.681" y2="154.8082" gradientTransform="matrix(0.9994 3.380000e-02 3.380000e-02 -0.9994 -12.2608 512.8539)">
					<stop  offset="0" style="stop-color:#FFFFFF"/>
					<stop  offset="0.6475" style="stop-color:#708FEA"/>
				</linearGradient>
				<path style="fill:url(#SVGID_00000154427212086264149840000013767764664306669237_);" d="M245.6,77.4l-69.3-2.3
					c-0.3,0-0.6,0-0.9,0c19.5,20.9,39,41.7,58.5,62.6l138.9,148.6l-21.8-96L245.6,77.4z"/>
			</g>
		</g>
		<g>
			<path class="st12" d="M435.4,188H330.6c-4.1,0-8.2-3.3-9.2-7.4L307,121.9c-1-4.1,1.5-7.4,5.6-7.4h104.8c4.1,0,8.2,3.3,9.2,7.4
				l14.4,58.6C442,184.7,439.5,188,435.4,188z"/>
			<g>
				<g>
					<text transform="matrix(0.9409 0 0.2385 0.9711 326.0565 142.5477)" class="st10 st7 st23">8:30</text>
				</g>
				<g>
					<text transform="matrix(0.9409 0 0.2385 0.9711 332.8609 170.2569)" class="st10 st7 st23">MEETING</text>
				</g>
				<g>
					<polygon class="st10" points="418.4,145.5 326.8,145.5 326.6,144.7 418.2,144.7 					"/>
				</g>
			</g>
		</g>
	</g>
	<g>
		<g>
			<g>
				<path class="st24" d="M594.6,437.5h24c-0.4-2.4-1.9-5.3-2.2-6c0.4-1.5,0.7-2.6,0.7-2.6s0.7-2.5,1.7-6.4h-12.4l0.8,7.4
					c-3.2,2.2-9.2,6.2-12,7.4C595,437.3,594.8,437.4,594.6,437.5z"/>
				<path class="st6" d="M590,440.3h21.9l1.8-1.8v1.8h5.8c0.8-2-0.8-4.7-1-6c-0.2-1.4-2.1-2.7-2.1-2.7c-1.5,0-3.2,3.7-3.8,3.7
					c-0.6,0-1.1-3.8-2.5-4.7c-1.4-0.8-4.2-1.2-5.2,0.1c-3.8,4.8-10,5.8-13.8,7.2c-2.3,0.9-2.2,1.8-1.8,2.4
					C589.5,440.3,589.7,440.3,590,440.3z"/>
			</g>
			<g>
				<path class="st25" d="M563,437.5h24c-0.3-2.3-1.7-5.2-2-6c0.3-1.8,0.5-3.2,0.5-3.2s0.3-2.3,0.7-5.9h-12.4l1.7,7.6
					c-3.3,2.2-9.2,6.1-12,7.2C563.4,437.3,563.2,437.4,563,437.5z"/>
				<path class="st6" d="M558.1,440.3H580l1.8-1.8v1.8h5.8c0.8-2-0.8-4.7-1-6c-0.2-1.4-2.1-2.7-2.1-2.7c-1.5,0-3.2,3.7-3.8,3.7
					c-0.6,0-1.1-3.8-2.5-4.7c-1.4-0.8-4.2-1.2-5.2,0.1c-3.8,4.8-10,5.8-13.8,7.2c-2.3,0.9-2.2,1.8-1.8,2.4
					C557.7,440.3,557.9,440.3,558.1,440.3z"/>
			</g>
			<g>
				<path class="st6" d="M627.5,223.7l-31.3,1.4l0-0.3l-31.8,1.5c0,0-5.3,11.8-6.8,26s-2.8,93.7-2.3,97.8c0.5,4.2,19,79,19,79H587
					c0,0,6.8-50.3-4.3-81.7l9.1-43.4c3.8,33.4,13.8,124.2,13.8,124.2h12.7c0,0,11.3-37.3,10.8-54.8s-5-32.2-5-32.2s5.7-92.3,6-100.7
					C630.4,232.4,627.5,223.7,627.5,223.7z"/>
				<g>
					<g>
						<path class="st26" d="M591.2,303.5c-0.6-3.3-1.2-6.6-1.7-9.9c-0.5-3.3-1-6.6-1.4-9.9c-0.4-3.3-0.9-6.6-1.2-9.9l-0.5-5
							c-0.1-1.7-0.3-3.3-0.4-5c0.3,1.6,0.6,3.3,0.9,4.9l0.8,4.9c0.5,3.3,1,6.6,1.4,9.9c0.4,3.3,0.9,6.6,1.2,9.9
							C590.6,296.9,591,300.2,591.2,303.5z"/>
						<path class="st26" d="M589.2,287.2l-8.6,34.6c-1.4,5.8-2.8,11.5-4.1,17.3c-0.3,1.4-0.6,2.9-0.8,4.3l-0.1,0.5c0,0,0,0.1,0,0.1
							c0,0,0.1,0.1,0.1,0.2c0.2,0.2,0.4,0.5,0.6,0.7c0.5,0.4,1.2,0.8,1.8,1.3c0.3,0.2,0.6,0.5,0.9,0.9c0.3,0.3,0.5,0.8,0.5,1.3
							c0,0.2,0,0.5-0.1,0.7l-0.1,0.3c0,0.1,0,0.1,0,0.2c0,0.3,0,0.6,0,1c0.1,1.4,0.5,2.9,0.8,4.3c1.3,5.8,2.8,11.5,4.1,17.3
							c0.6,2.9,1.3,5.8,1.7,8.8c0.3,3,0.2,6,0.1,8.9c-0.2,11.9-0.6,23.7-1.1,35.6l0.2-17.8c0.1-5.9,0.1-11.9,0.1-17.8
							c0-1.5,0-3,0-4.4c0-1.5,0-3-0.2-4.4c-0.4-2.9-1-5.8-1.7-8.7c-1.3-5.8-2.9-11.5-4.2-17.3c-0.3-1.5-0.6-2.9-0.8-4.4
							c0-0.4-0.1-0.8,0-1.2c0-0.1,0.1-0.3,0.1-0.4l0.1-0.2c0.1-0.1,0-0.3,0.1-0.4c0-0.5-0.5-1-1-1.5c-0.5-0.5-1.2-0.8-1.8-1.4
							c-0.3-0.2-0.6-0.5-0.8-0.9c-0.1-0.1-0.1-0.2-0.2-0.3c0-0.1,0-0.3,0-0.5l0.1-0.6c0.2-1.5,0.6-2.9,0.9-4.4
							c1.3-5.8,2.8-11.6,4.3-17.3C582.9,310.1,586,298.6,589.2,287.2z"/>
						<path class="st26" d="M624.2,232.2c0.2,4.1,0.4,8.1,0.5,12.2c0.1,4.1,0.3,8.1,0,12.2l-1.3,24.4c-0.9,16.2-1.8,32.5-2.4,48.7
							c-0.1,4.1-0.3,8.1-0.2,12.2c0,0.5,0,1,0.1,1.5c0,0.2,0,0.5,0.1,0.7l0,0.1c0,0.1,0-0.1-0.1,0l0.3,0.2c0.8,0.7,1.6,1.5,2,2.6
							c0.2,0.5,0.3,1.1,0.3,1.7c0,0.3-0.1,0.6-0.1,0.8c0,0.2,0,0.4,0,0.7c0,1,0.2,2,0.3,3c0.8,8.1,2,16.2,2.3,24.3
							c0.1,2,0.1,4.1-0.2,6.1c-0.3,2-0.7,4-1.1,6c-0.8,4-1.8,8-2.7,11.9c-1.9,7.9-4,15.8-6.1,23.6c1.9-7.9,3.8-15.8,5.6-23.7
							c0.9-4,1.8-7.9,2.6-11.9c0.4-2,0.8-4,1-6c0.3-2,0.2-4,0.1-6c-0.5-8.1-1.6-16.2-2.5-24.3c-0.1-1-0.2-2-0.3-3.1
							c0-0.2,0-0.5,0-0.8c0-0.3,0.1-0.5,0.1-0.7c0-0.5,0-0.9-0.2-1.3c-0.3-0.8-1-1.5-1.7-2.2l-0.3-0.2c-0.1-0.1-0.2-0.3-0.2-0.4
							l-0.1-0.2c-0.1-0.3-0.1-0.6-0.1-0.8c0-0.5-0.1-1-0.1-1.5c-0.1-4.1,0.1-8.2,0.2-12.2c0.6-16.3,1.6-32.5,2.6-48.8l1.6-24.4
							c0.4-4,0.3-8.1,0.3-12.2C624.4,240.3,624.3,236.3,624.2,232.2z"/>
						<path class="st26" d="M566.5,230.5c0.3,1.9,0.2,3.7,0.1,5.6c-0.2,1.9-0.6,3.7-1.2,5.5c-0.6,1.8-1.5,3.5-2.6,5
							c-1.2,1.5-2.7,2.7-4.4,3.6c1.5-1.2,2.7-2.5,3.7-4c1-1.5,1.7-3.2,2.3-4.9c0.6-1.7,1-3.5,1.3-5.3
							C566.1,234.2,566.3,232.4,566.5,230.5z"/>
						<path class="st26" d="M620.1,234.8l0.2,4.4c0.1,1.5,0.2,2.9,0.4,4.4c0.2,1.4,0.5,2.9,1,4.2c0.5,1.3,1.3,2.6,2.7,3.1
							c-0.8-0.1-1.5-0.4-2.1-0.9c-0.6-0.5-1-1.2-1.4-1.9c-0.7-1.4-1.1-2.9-1.3-4.4C619.3,240.7,619.5,237.7,620.1,234.8z"/>
					</g>
				</g>
			</g>
		</g>
		<g>
			<g>
				<g>
					<path class="st24" d="M507.9,149.7c0,0,1.9,6.8,2.2,8.1s2.9,5.2,2.9,5.2l-7.7,3.4l-6.6-12l2.8-5.6L507.9,149.7z"/>
					<g>
						<g>
							<path d="M507.3,152.7l-5.3,3.7l-0.3,0.2c-0.4,0.3-1,0.2-1.3-0.2l-9.8-14c-0.3-0.4-0.2-1,0.2-1.3l0.3-0.2l5.3-3.7
								c0.4-0.3,1-0.2,1.2,0.2l9.9,14.1C507.8,151.8,507.7,152.4,507.3,152.7z"/>
							<path class="st27" d="M502,156.4l-0.3,0.2c-0.4,0.3-1,0.2-1.3-0.2l-9.8-14c-0.3-0.4-0.2-1,0.2-1.3l0.3-0.2L502,156.4z"/>
							<path class="st2" d="M507.3,152.6l-5,3.4l-0.3,0.2c-0.4,0.3-1,0.2-1.3-0.2l-9.9-14c-0.3-0.4-0.2-1,0.2-1.3l0.3-0.2l5-3.4
								c0.4-0.3,1-0.2,1.3,0.2l9.9,14.1C507.8,151.8,507.7,152.4,507.3,152.6z"/>
						</g>
						<g>
							<g>
								<path class="st24" d="M509.3,156.3c-0.1,0.1-0.2-6.9-1-8.4s-5.8-3.5-5.8-3.5s-0.9,2.5,1.7,3.4l1.2,1.6c0,0-0.4,3.2,0.1,5
									L509.3,156.3z"/>
								<path class="st24" d="M500.3,156.7c0,0,1.3-0.4,1.3-0.9s-3.2-2.2-3.2-2.2s0.8,0.3,1.1-0.3s-3.4-3.4-3.4-3.4s1.1-0.6,0.8-0.9
									s-2.2-0.7-2.2-0.7l-1.2-1.7c0,0-0.5,3.4,1.1,3.9c0,0,1.7,3,3,3.4C497.6,153.8,498.3,156.4,500.3,156.7z"/>
							</g>
						</g>
					</g>
				</g>
				<g>
					<path class="st4" d="M580.7,113c0,0-20.8,6.8-27.2,13.5s-18.2,57.8-18.2,57.8s-2-1.8-2.8-2.2S512,158.8,512,158.8
						s-10.2,3.2-10.5,5.8s16.2,47,26.8,52.8s14,2,14.8,1s28.8-35.5,30.2-40S580.7,113,580.7,113z"/>
					<g>
						<g>
							<path class="st28" d="M544.2,193.5c-1.7-1.4-3.2-2.8-4.7-4.3c-1.5-1.5-2.9-3.1-4.3-4.7l-0.9-1.1l1.3,0.4
								c0.7,0.2,1.4,0.5,2,0.7c0.7,0.3,1.4,0.5,2,0.8c-0.7-0.1-1.4-0.2-2.2-0.3c-0.7-0.1-1.4-0.3-2.1-0.4l0.4-0.6
								c1.5,1.5,3,3,4.4,4.6C541.6,190.1,543,191.8,544.2,193.5z"/>
							<path class="st28" d="M536.9,182.9c0.3-0.6,0.7-0.8,1.1-1c0.5-0.2,0.9-0.3,1.5-0.1c-0.3,0.6-0.7,0.8-1.1,1
								C538,182.9,537.5,183,536.9,182.9z"/>
							<path class="st28" d="M561.7,183.8c-0.6,1.7-1.6,3.2-2.6,4.7c-1.1,1.4-2.3,2.8-3.4,4.1c-1.1,1.4-2.1,2.8-2.7,4.5
								c-0.1,0.4-0.3,0.8-0.4,1.2c-0.1,0.4-0.2,0.8-0.3,1.3c-0.1,0.5-0.4,1.1-0.9,1.4c-0.5,0.3-1,0.4-1.3,0.5
								c-1.5,0.5-2.4,2.1-3.1,3.7c-0.4,0.8-0.7,1.6-1.1,2.5c-0.4,0.8-0.9,1.6-1.4,2.3c-2.1,2.9-4.5,5.6-6.9,8.3
								c1-1.5,2.1-2.9,3.2-4.3c1.1-1.4,2.2-2.9,3.1-4.3c0.5-0.7,0.9-1.5,1.3-2.3c0.4-0.8,0.7-1.6,1-2.5c0.4-0.8,0.8-1.7,1.3-2.4
								c0.6-0.8,1.4-1.5,2.3-1.8c0.5-0.2,0.9-0.3,1.2-0.4c0.3-0.2,0.4-0.4,0.5-0.8c0.1-0.4,0.2-0.8,0.3-1.3c0.1-0.5,0.2-0.9,0.4-1.3
								c0.7-1.7,1.8-3.2,3-4.6c1.2-1.4,2.5-2.6,3.6-4C559.9,186.8,560.9,185.4,561.7,183.8z"/>
							<path class="st28" d="M543.4,205.4c0.8,0,1.5,0.2,2.2,0.5c0.6,0.3,1.2,0.7,1.7,1.4c-0.8,0-1.5-0.2-2.2-0.5
								C544.4,206.5,543.8,206.1,543.4,205.4z"/>
							<path class="st28" d="M503.4,166c1.3-1.1,2.8-1.9,4.3-2.7c0.8-0.4,1.5-0.7,2.3-1c0.8-0.3,1.7-0.5,2.6-0.4
								c-0.8,0.3-1.5,0.7-2.3,1.1c-0.7,0.4-1.5,0.8-2.2,1.2C506.7,164.9,505.1,165.6,503.4,166z"/>
						</g>
					</g>
				</g>
			</g>
			<g>
				<g>
					<path class="st24" d="M577.4,118.9c5.5,3.6,11.5,5.5,18.1,5.9c6.5,0.3,13.6,0.5,19.4-2.9c1.6-0.9,3-2,4.5-3.2
						c-10.3-4-13-7.3-13-7.3c-3.3-3.6-5.4-16.9-5.4-16.9l-7.5,5.4l-7.5-0.5c0,0-0.7,8.8-4.1,12.2c0,0-1.7,1.8-8.1,4.7
						C574.9,117.3,576.2,118.1,577.4,118.9z"/>
					<path class="st29" d="M585.4,102.9c3.4,0.9,7.7,0.6,11.5-2.1c1.7-1.2,3.1-2.9,4.2-4.8c-0.1-0.3-0.1-0.6-0.1-0.8
						c-0.8,1-1.7,1.9-2.7,2.6c-4.2,3-8.9,3-12.4,1.8C585.8,100.2,585.7,101.4,585.4,102.9z"/>
				</g>
				<g>
					<polygon class="st10" points="563.1,225.3 563.1,227.8 584.5,234.7 588.3,229.8 590.7,235.3 630.2,228.4 629.3,224.4 					"/>
					<g>
						<path class="st4" d="M626.7,208c0,0,3.8,11.8,3.8,18.2c0,0-43,6.2-67.8,0c0,0-0.3-23.2-0.7-40.9c-0.2-9.9-0.5-18.1-0.8-19.6
							c-0.1-0.5-0.2-1.4-0.4-2.7c-1.1-9.3-3.7-36.6-2.6-39.3c1.2-3,22.5-10.8,22.5-10.8s3,7.5,9.5,7.2s16.1-8.9,16.1-8.9
							s14.1,6.7,16.9,7.2s8.8,8.5,9,11.2c0.1,1.3-1.1,19.2-2.5,37.5c-0.5,7.4-1.1,15-1.6,21.5C627.3,199.9,626.7,208,626.7,208z"/>
						<g>
							<path class="st30" d="M629.8,167.3c-0.5,7.4-1.1,15-1.6,21.5l-10.9-10.9l-10.8,10.8l-11.9-11.9l-10.8,10.8l-11.9-11.9
								l-9.8,9.8c-0.2-9.9-0.5-18.1-0.8-19.6c-0.1-0.5-0.2-1.4-0.4-2.7l10.9,10.9l10.8-10.8l11.9,11.9l10.8-10.8l11.9,11.9
								l10.8-10.8L629.8,167.3z"/>
							<g>
								<g>
									<path class="st28" d="M562.4,193c-0.3-4-0.6-8.1-0.8-12.1c-0.2-4-0.4-8.1-0.5-12.1c-0.1-4-0.2-8.1-0.3-12.1l-0.1-6.1
										c0-2,0-4,0-6.1c0.2,2,0.3,4,0.5,6.1l0.3,6.1c0.2,4,0.4,8.1,0.5,12.1c0.1,4,0.2,8.1,0.3,12.1C562.4,185,562.4,189,562.4,193
										z"/>
									<path class="st28" d="M558,146.4c0.9,1.6,1.5,3.3,2.1,5c0.5,1.7,1,3.5,1.1,5.3c-0.9-1.6-1.5-3.3-2.1-5
										C558.6,150,558.2,148.2,558,146.4z"/>
									<path class="st28" d="M584,120.1c1,1.2,2,2.4,3.2,3.4c1.1,1,2.4,1.8,3.8,2.2c0.7,0.2,1.4,0.2,2.1,0.2
										c0.7-0.1,1.4-0.3,2-0.7c1.3-0.7,2.3-1.9,3.2-3.2c-0.5,1.5-1.4,2.9-2.8,3.8c-0.7,0.5-1.5,0.8-2.3,0.9
										c-0.8,0.1-1.7,0-2.5-0.1c-1.6-0.5-3-1.4-4.1-2.6C585.5,122.9,584.7,121.6,584,120.1z"/>
								</g>
							</g>
						</g>
					</g>
					<g>
						<g>
							<path class="st31" d="M590.2,120.3l-3.1-7.7l-3.2,5.8C584,118.5,587.7,121,590.2,120.3z"/>
							<path class="st31" d="M599,121.6l-5.7-7.3l-3.1,6C590.2,120.3,594.4,121.9,599,121.6z"/>
						</g>
						<g>
							<polygon class="st10" points="590.2,120.3 592.5,111.5 604.5,107.4 611,112.5 599.3,122.4 593.3,114.8 							"/>
							<polygon class="st10" points="590.2,120.3 588.3,111.5 583.7,107.6 575.9,114.8 580.7,113 583.8,119.3 587.3,114.1 							
								"/>
						</g>
					</g>
				</g>
			</g>
			<g>
				<g>
					<g>
						<path class="st25" d="M632,209.4c-0.1-0.1-0.2-0.3-0.2-0.4c-8.5,9.3-15.5,18.4-12.7,20.1c2.6,1.6,11.3-2.4,20.8-7.7
							C636.8,217.6,634.3,213.5,632,209.4z"/>
					</g>
					<g>
						<path class="st32" d="M611.5,235c0,0-6.2,2.7-7.1,2.8s-2.7-0.1-2.9-0.4c-0.1-0.4,2.3-0.9,2.3-0.9l7.2-3.9L611.5,235z"/>
						<path class="st25" d="M621.6,222.3c0,0,3.4,4.6,2.3,6.9s-9,7.9-10.7,8.5c-1.7,0.6-10.4,3.7-11.1,3.1s8-6.5,8-6.5
							s1.4-1-0.1-2.1c0,0,1.7-4.8,3.3-6C614.9,225.2,619.3,222.9,621.6,222.3z"/>
						<path class="st25" d="M612.1,231.9c0,0-4.2,0.9-5,1.3s-2.6,0.9-2.7,0.2c0-0.7,7.3-6.8,9.4-7.1c2-0.4,2.3,2.8,2.3,2.8
							L612.1,231.9z"/>
					</g>
				</g>
				<g>
					<path class="st4" d="M628,119.3c-1.5-1.2-11.1-4.5-17-6.4c-2.4,2.5-4.7,5.1-7,7.7l-4.8,19l50.5,45.8L622,217.5l8.5,8.8
						c0,0,48-25.2,48-40.5S630.2,121,628,119.3z"/>
					<g>
						<g>
							<path class="st28" d="M613.5,152.7c3,2.2,5.7,4.6,8.4,7c2.7,2.5,5.3,5,7.7,7.8c-3-2.2-5.7-4.6-8.4-7
								C618.6,158,616,155.5,613.5,152.7z"/>
							<path class="st28" d="M612,157.2c1.3-0.2,2.6,0,3.9,0.2c1.3,0.2,2.5,0.5,3.7,1.2c-1.3,0.2-2.6,0-3.9-0.2
								C614.5,158.1,613.3,157.8,612,157.2z"/>
							<path class="st28" d="M649.9,183.5c0.3-0.8,0.9-1.4,1.4-1.9c0.6-0.5,1.2-0.9,2.1-1.1c-0.3,0.8-0.9,1.4-1.4,1.9
								C651.4,182.9,650.7,183.3,649.9,183.5z"/>
							<path class="st28" d="M650.7,184.5c0.6-0.6,1.3-0.8,2-1c0.7-0.2,1.4-0.2,2.2,0c-0.6,0.6-1.3,0.8-2,1
								C652.2,184.7,651.5,184.8,650.7,184.5z"/>
							<path class="st28" d="M650.9,186c0.4-0.4,0.8-0.5,1.2-0.5c0.4,0,0.8,0.1,1.2,0.5c-0.4,0.4-0.8,0.5-1.2,0.5
								C651.7,186.5,651.3,186.4,650.9,186z"/>
							<path class="st28" d="M623.4,218.2c0.6-1.5,1.5-2.8,2.4-4.1c1-1.3,2-2.5,3.2-3.5c-0.6,1.5-1.5,2.8-2.4,4.1
								C625.7,215.9,624.6,217.2,623.4,218.2z"/>
							<path class="st28" d="M615.5,131.9c-0.2-0.7,0-1.4,0.2-2.1c0.3-0.7,0.6-1.3,1-1.8c0.7-1.2,1.6-2.3,2.5-3.3
								c1.9-2.1,4-3.9,6.5-5.1c-2,1.9-4,3.8-5.8,5.8c-0.9,1-1.8,2.1-2.6,3.1c-0.4,0.5-0.9,1.1-1.2,1.6
								C615.9,130.6,615.6,131.2,615.5,131.9z"/>
							<path class="st28" d="M611.3,114.7c3,2.2,6.3,3.8,9.9,4.8c0.9,0.3,1.8,0.6,2.6,1.1c0.4,0.2,0.8,0.5,1.2,0.9
								c0.4,0.3,0.7,0.7,1,1c0.3,0.3,0.6,0.5,1,0.5c0.4,0.1,0.9,0,1.4,0.1c1,0.2,1.8,0.8,2.5,1.5c1.4,1.3,2.5,2.7,3.8,4.1l3.7,4.1
								l7.3,8.4c4.8,5.6,9.5,11.3,14.2,17.1l7,8.6c2.2,2.9,4.8,5.7,6.3,9.1c-1.8-3.3-4.3-5.9-6.7-8.8l-7.2-8.4
								c-4.8-5.6-9.5-11.3-14.4-16.9c-4.8-5.6-9.6-11.3-14.5-16.7c-0.6-0.6-1.3-1.2-2.2-1.4c-0.4-0.1-0.8-0.1-1.3-0.2
								c-0.5-0.1-1-0.4-1.4-0.7c-0.4-0.3-0.6-0.7-1-1c-0.3-0.3-0.7-0.6-1-0.8c-0.8-0.5-1.6-0.8-2.5-1.1
								C617.5,118.8,614.1,117.1,611.3,114.7z"/>
							<path class="st28" d="M626.6,217c1,1.1,2.2,1.8,3.4,2.7c0.6,0.4,1.2,0.9,1.7,1.5c0.5,0.6,0.9,1.3,1,2c-1-1.1-2.1-1.9-3.3-2.7
								c-0.6-0.4-1.2-0.9-1.7-1.5C627.2,218.5,626.8,217.8,626.6,217z"/>
						</g>
					</g>
				</g>
			</g>
		</g>
		<g>
			<g>
				<path class="st24" d="M609.3,81.7c-0.8-0.5-1.7-0.4-2.4-0.2c1.9-7.1-1-14.6-7.3-17.6c-7.2-3.5-16.2,0.1-20.1,8.1
					c-0.4,0.9-0.8,1.9-1.1,2.9c0,0,0,0,0,0c-0.9,2.4-1.7,6.2-1.6,10.2c0,2.9,0.6,5.9,2,8.5c0.6,1.2,1.4,2.3,2.5,3.3
					c2.9,3.2,10.6,5.7,17.1,1c2.4-1.7,4.2-4.4,5.5-7.2C609.6,91.6,610.4,82.5,609.3,81.7z"/>
				<g>
					<path class="st33" d="M591.6,89.7c0,2.6,2.1,4.8,4.8,4.8s4.8-2.1,4.8-4.8s-2.1-4.8-4.8-4.8S591.6,87.1,591.6,89.7z"/>
					<path class="st33" d="M576.7,85c0,2.9,0.6,5.9,2,8.5c1.1-0.9,1.9-2.2,1.9-3.8C580.6,87.4,578.9,85.5,576.7,85z"/>
					<path class="st6" d="M607.4,85.8c0.3-0.6,0.5-1.3,0.4-2c0-0.3,0-0.7-0.3-0.8c-0.2-0.2-0.5-0.2-0.8-0.1c-0.6,0.2-1,0.7-1.3,1.3
						c-0.3,0.6-0.6,1.3-0.8,1.9c-0.3,0.6-0.5,1.3-0.5,1.9c0,0.1,0,0.3,0,0.4c0,0.1,0.1,0.1,0.2,0.1c0.2,0,0.5-0.3,0.7-0.5
						c0.4-0.5,0.7-1.1,0.8-1.8c0.1-0.6,0-1.4-0.6-1.8c0.6,0.4,0.9,1.2,0.8,1.9c0,0.7-0.3,1.4-0.7,2c-0.2,0.3-0.5,0.6-0.9,0.7
						c-0.2,0.1-0.6-0.1-0.7-0.3c-0.1-0.2-0.1-0.4-0.1-0.6c0.1-0.7,0.3-1.4,0.5-2.1c0.3-0.7,0.6-1.3,0.9-1.9c0.3-0.6,0.8-1.3,1.6-1.5
						c0.4-0.1,0.8,0,1.1,0.2c0.3,0.3,0.4,0.8,0.3,1.1C608,84.6,607.8,85.3,607.4,85.8z"/>
					<g>
						<g>
							<path class="st34" d="M587.3,85.3c0,0.1-0.2,0.2-0.5,0.2s-0.4-0.2-0.4-0.3c0-0.1,0.2-0.2,0.5-0.2
								C587.1,85,587.3,85.1,587.3,85.3z"/>
						</g>
						<path class="st6" d="M586.5,81.8c0,0.5,0,0.9-0.2,1.4c-0.1,0.5-0.3,0.9-0.5,1.3c-0.2,0.4-0.3,0.8-0.1,1.2
							c0.1,0.4,0.5,0.7,0.9,0.9c-0.5,0-1-0.3-1.2-0.8c-0.3-0.5-0.2-1.1,0-1.5c0.2-0.4,0.4-0.8,0.6-1.3
							C586.2,82.7,586.4,82.3,586.5,81.8z"/>
						<path class="st6" d="M587.6,86.6c0-0.2,0.1-0.4,0.2-0.5c0.1-0.1,0.3-0.2,0.5-0.2c0,0.2-0.1,0.4-0.2,0.5
							C588,86.5,587.8,86.6,587.6,86.6z"/>
					</g>
					<g>
						<g>
							<path class="st6" d="M588.7,91c-0.4,0.3-0.9,0.3-1.4,0.4c-0.2,0-0.5,0-0.7-0.1c-0.2-0.1-0.5-0.2-0.7-0.3
								C586.9,91.1,587.7,91.2,588.7,91z"/>
							<g>
								<path class="st6" d="M591.1,88.1c-0.5,0.5-1.1,0.9-1.7,1.1c-0.6,0.3-1.3,0.4-2,0.4c-0.7,0-1.4-0.1-2-0.4
									c-0.3-0.1-0.6-0.3-0.9-0.4c-0.3-0.2-0.6-0.4-0.8-0.6c0.6,0.2,1.2,0.5,1.9,0.7c0.6,0.2,1.3,0.3,1.9,0.3
									c0.6,0,1.3-0.1,1.9-0.2C589.9,88.7,590.5,88.4,591.1,88.1z"/>
							</g>
						</g>
					</g>
					<g>
						<g>
							<g>
								<g>
									<g>
										<ellipse class="st6" cx="583.4" cy="82.7" rx="0.9" ry="1.9"/>
									</g>
								</g>
								<g>
									<path class="st24" d="M583.9,84.8l0.2-0.5c-0.1,0-1.7-0.8-2.8-0.2l0.3,0.4C582.3,84.2,583.5,84.6,583.9,84.8z"/>
								</g>
							</g>
							<g>
								<g>
									<path class="st6" d="M584.4,78.3c-0.6,0.3-1,0.3-1.4,0.2c-0.4,0-0.9,0-1.3,0.1c-0.4,0.1-0.8,0.2-1.2,0.4
										c-0.4,0.2-0.8,0.5-1.2,0.8l0,0c-0.1,0.1-0.3,0.1-0.4-0.1c-0.1-0.1-0.1-0.2,0-0.3c0.2-0.5,0.6-0.9,1-1.3
										c0.4-0.4,0.9-0.7,1.5-0.9c0.6-0.2,1.1-0.3,1.7-0.3c0.6,0,1.2,0.1,1.5,0.8C584.7,77.9,584.6,78.1,584.4,78.3
										C584.5,78.2,584.5,78.2,584.4,78.3L584.4,78.3z"/>
									<path class="st6" d="M584.8,77.1c-0.2,0.2-0.4,0.4-0.5,0.6l-0.2,0.3c-0.1,0.1-0.2,0.2-0.3,0.3c0.3,0.2,0.7,0,0.9-0.2
										C584.9,77.8,584.9,77.4,584.8,77.1z"/>
								</g>
							</g>
						</g>
						<g>
							<g>
								<g>
									<g>
										<path class="st6" d="M592.1,82.7c0,1-0.4,1.9-0.9,1.9s-0.9-0.8-0.9-1.9s0.4-1.9,0.9-1.9C591.7,80.8,592.1,81.7,592.1,82.7
											z"/>
									</g>
								</g>
								<g>
									<path class="st24" d="M590.7,84.8c0,0,1.5-0.7,2.3-0.2l0.3-0.4c-1.1-0.7-2.7,0.1-2.8,0.2L590.7,84.8z"/>
								</g>
							</g>
							<g>
								<g>
									<path class="st6" d="M590,77.8c0.4-0.6,1-0.8,1.5-0.8c0.6,0,1.2,0.1,1.7,0.3c0.5,0.2,1.1,0.5,1.5,0.9
										c0.4,0.4,0.7,0.8,1,1.3c0.1,0.1,0,0.3-0.1,0.4c-0.1,0-0.2,0-0.3,0l0,0c-0.4-0.3-0.8-0.6-1.2-0.8c-0.4-0.2-0.8-0.3-1.2-0.4
										c-0.4-0.1-0.8-0.1-1.3-0.1c-0.4,0.1-0.8,0.1-1.4-0.2l-0.1,0C590,78.1,589.9,77.9,590,77.8C590,77.8,590,77.8,590,77.8z"/>
									<path class="st6" d="M589.8,77.1c0.2,0.2,0.4,0.4,0.5,0.6l0.2,0.3c0.1,0.1,0.2,0.2,0.3,0.3c-0.3,0.2-0.7,0-0.9-0.2
										C589.7,77.8,589.7,77.4,589.8,77.1z"/>
								</g>
							</g>
						</g>
					</g>
				</g>
			</g>
			<g>
				<path class="st6" d="M608.9,69c0,0-0.1-3.5-1.8-5.3c-2-2.3-19.1-7.3-25.9-0.8c-4.2,4-4.4,11.3-4,16.4c0,0,4.3-9.5,5.3-9.8
					s4.2,3.8,6.9,4.4c1.9,0.4,6.2-1.3,8.5-2.3c1.3-0.6,3,0.1,3.4,1.5c0.1,0.4,0.1,0.9,0,1.4c-0.7,2.3-1.6,4.3-1.3,5.4
					s2.1,5.8,2.1,5.8c0.9-0.2,1.8-0.6,2.4-1.3c0.8-0.9,2-2.1,3-3c0.2,0,0.5-0.1,0.8,0c0.9-1.6,2-3.8,2.5-5.4
					C611.6,73,609.8,69.7,608.9,69z"/>
				<path class="st35" d="M603.1,68.7c-4.2-1.1-8.1-3.3-12.1-5c-2.1-0.9-4.4-1.9-6.8-2.8c-1.1,0.5-2.1,1.1-3,1.9
					c-1.7,1.6-2.7,3.8-3.4,6.1c4.7-0.8,9.8-0.1,14,1.4c1.5,0.5,2.9,1.2,4.3,1.8c0.6-0.3,1.2-0.5,1.7-0.7c1.3-0.6,3,0.1,3.4,1.5
					c0.1,0.4,0.1,0.9,0,1.4c0,0.1-0.1,0.2-0.1,0.3c1.9,0.9,3.7,1.8,5.7,2.6c1,0.4,2,0.6,3.1,0.6c0.3-0.7,0.6-1.4,0.8-2
					c0.8-2.4-0.4-5.1-1.3-6.3C607.3,69.5,605.2,69.2,603.1,68.7z"/>
			</g>
		</g>
	</g>
	<line class="st36" x1="60.5" y1="441" x2="689.5" y2="441"/>
</g>
</svg>
