<?xml version="1.0" encoding="utf-8"?>
<!-- Generator: Adobe Illustrator 27.5.0, SVG Export Plug-In . SVG Version: 6.00 Build 0)  -->
<svg version="1.1" xmlns="http://www.w3.org/2000/svg" xmlns:xlink="http://www.w3.org/1999/xlink" x="0px" y="0px"
	 viewBox="0 0 750 500" style="enable-background:new 0 0 750 500;" xml:space="preserve">
<g id="Background_complete">
	<g>
		<g>
			<g>
				<g>
					<g>
						<g>
							<path style="fill:#E0E0E0;" d="M673.734,318.416H492.988c-3.232,0-5.862-2.63-5.862-5.862V49.281
								c0-3.232,2.63-5.862,5.862-5.862h180.746c3.232,0,5.862,2.629,5.862,5.862v263.273
								C679.596,315.786,676.966,318.416,673.734,318.416z M492.988,43.669c-3.095,0-5.612,2.518-5.612,5.612v263.273
								c0,3.095,2.518,5.612,5.612,5.612h180.746c3.095,0,5.612-2.518,5.612-5.612V49.281c0-3.094-2.518-5.612-5.612-5.612H492.988z
								"/>
						</g>
					</g>
					<g>
						<g>
							<path style="fill:#E0E0E0;" d="M465.306,318.416H284.56c-3.232,0-5.862-2.63-5.862-5.862V49.281
								c0-3.232,2.629-5.862,5.862-5.862h180.747c3.232,0,5.862,2.629,5.862,5.862v263.273
								C471.168,315.786,468.538,318.416,465.306,318.416z M284.56,43.669c-3.094,0-5.612,2.518-5.612,5.612v263.273
								c0,3.095,2.518,5.612,5.612,5.612h180.747c3.095,0,5.612-2.518,5.612-5.612V49.281c0-3.094-2.518-5.612-5.612-5.612H284.56z"
								/>
						</g>
					</g>
				</g>
				<g>
					<g>
						<g>
							<path style="fill:#E0E0E0;" d="M257.012,318.416H76.266c-3.232,0-5.862-2.63-5.862-5.862V49.281
								c0-3.232,2.629-5.862,5.862-5.862h180.746c3.232,0,5.862,2.629,5.862,5.862v263.273
								C262.875,315.786,260.245,318.416,257.012,318.416z M76.266,43.669c-3.094,0-5.612,2.518-5.612,5.612v263.273
								c0,3.095,2.518,5.612,5.612,5.612h180.746c3.095,0,5.612-2.518,5.612-5.612V49.281c0-3.094-2.518-5.612-5.612-5.612H76.266z"
								/>
						</g>
					</g>
				</g>
			</g>
			<g>
				<g>
					<rect y="379.486" style="fill:#E0E0E0;" width="750" height="0.12"/>
				</g>
			</g>
		</g>
		<g>
			<rect x="653.626" y="408.862" style="fill:#EBEBEB;" width="55.729" height="0.421"/>
			<rect x="495.044" y="413.427" style="fill:#EBEBEB;" width="14.627" height="0.421"/>
			<rect x="40.645" y="396.065" style="fill:#EBEBEB;" width="72.674" height="0.421"/>
			<rect x="128.299" y="396.065" style="fill:#EBEBEB;" width="10.656" height="0.421"/>
			<rect x="173.586" y="403.169" style="fill:#EBEBEB;" width="157.613" height="0.421"/>
		</g>
	</g>
	<g>
		<g>
			<rect x="595.333" y="71.667" style="fill:#E6E6E6;" width="64.777" height="122.118"/>
			<rect x="580.84" y="71.667" style="fill:#F0F0F0;" width="76.09" height="122.118"/>
			<rect x="592.405" y="82.514" style="fill:#FFFFFF;" width="52.924" height="100.424"/>
		</g>
		<g>
			<g>
				<path style="fill:#F0F0F0;" d="M616.456,105.768c-2.663,3.394-4.756,7.137-6.16,11.223c-1.411,4.106-2.323,8.721-1.634,13.054
					c0.588,3.694,2.78,7.271,6.326,8.755c3.812,1.595,7.814,0.073,10.873-2.365c2.837-2.26,6.504-6.206,5.553-10.168
					c-0.991-4.131-5.924-4.948-9.327-3.562c-7.815,3.183-11.522,12.159-12.117,20.018c-0.628,8.31,0.72,22.008,10.987,23.855
					c1.888,0.34,2.698-2.551,0.798-2.893c-7.323-1.317-8.59-10.26-8.848-16.343c-0.287-6.768,1.096-14.016,6.093-18.946
					c1.946-1.92,5.453-4.562,8.274-2.917c3.262,1.903-0.472,5.995-2.162,7.631c-2.149,2.08-5.216,4.023-8.327,3.157
					c-2.928-0.815-4.639-3.756-5.154-6.579c-0.703-3.85,0.258-8.053,1.489-11.7c1.228-3.636,3.088-7.079,5.458-10.1
					C619.756,106.387,617.647,104.25,616.456,105.768L616.456,105.768z"/>
			</g>
		</g>
	</g>
	<g>
		<g>
			<rect x="99.189" y="65.765" style="fill:#E6E6E6;" width="62.506" height="117.838"/>
			<rect x="85.204" y="65.765" style="fill:#F0F0F0;" width="73.423" height="117.838"/>
			<rect x="96.364" y="76.232" style="fill:#FFFFFF;" width="51.069" height="96.904"/>
		</g>
		<g>
			<g>
				<path style="fill:#F0F0F0;" d="M119.534,98.634c-2.546,3.246-4.552,6.817-5.911,10.719c-1.383,3.972-2.281,8.44-1.641,12.639
					c0.548,3.596,2.641,7.106,6.087,8.573c3.771,1.605,7.711,0.078,10.725-2.354c2.794-2.255,6.547-6.386,5.1-10.294
					c-1.408-3.8-6.011-4.235-9.262-2.803c-7.48,3.296-10.923,12.007-11.402,19.645c-0.501,7.976,0.871,20.868,10.671,22.64
					c1.888,0.341,2.697-2.549,0.798-2.893c-6.918-1.251-8.192-9.586-8.483-15.37c-0.325-6.464,0.872-13.423,5.515-18.256
					c1.796-1.87,4.987-4.474,7.787-3.373c3.736,1.47,0.216,5.676-1.453,7.334c-2.084,2.07-5.091,4.06-8.162,3.208
					c-2.849-0.791-4.47-3.669-4.954-6.406c-0.657-3.712,0.298-7.787,1.498-11.297c1.181-3.451,2.957-6.722,5.209-9.593
					C122.834,99.253,120.725,97.115,119.534,98.634L119.534,98.634z"/>
			</g>
		</g>
	</g>
	<g>
		<rect x="212.966" y="65.765" style="fill:#E0E0E0;" width="321.083" height="182.289"/>
		<g>
			<rect x="218.571" y="71.581" style="fill:#FAFAFA;" width="309.873" height="170.157"/>
			<polygon style="fill:#EBEBEB;" points="526.505,213.403 525.798,213.403 525.798,194.279 521.845,194.279 521.845,189.292 
				512.701,189.292 512.701,172.251 507.692,172.251 507.692,160.196 501.535,160.196 501.535,142.637 499.338,142.637 
				499.338,160.196 493.182,160.196 493.182,172.251 488.18,172.251 488.18,189.292 479.028,189.292 479.028,194.279 
				475.083,194.279 475.083,213.821 473.746,213.821 473.746,186.594 471.541,186.594 471.541,204.054 469.086,204.054 
				469.086,162.484 466.882,162.484 466.882,179.943 460.733,179.943 460.733,173.497 457.821,173.497 457.821,149.805 
				456.073,149.805 456.073,149.387 453.162,149.387 453.162,125.694 451.087,125.694 451.087,129.183 416.966,129.183 
				416.966,118.587 411.151,118.587 411.151,80.97 408.863,80.97 408.863,118.587 400.76,118.587 400.76,129.183 397.021,129.183 
				397.021,179.069 379.561,179.069 379.561,164.103 385.794,164.103 385.794,161.191 379.561,161.191 379.561,157.452 
				362.93,157.452 362.93,119.211 358.772,119.211 358.772,113.388 339.237,113.388 339.237,119.211 336.326,119.211 336.326,172 
				327.182,172 327.182,196.529 322.5,196.529 322.5,176.986 318.555,176.986 318.555,172 309.411,172 309.411,154.958 
				304.402,154.958 304.402,142.903 298.245,142.903 298.245,125.345 296.048,125.345 296.048,142.903 289.891,142.903 
				289.891,154.958 284.882,154.958 284.882,172 275.738,172 275.738,176.986 271.793,176.986 271.793,196.529 265.788,196.529 
				265.788,145.191 263.584,145.191 263.584,162.651 255.686,162.651 255.686,196.529 252.783,196.529 252.783,132.094 
				249.872,132.094 249.872,108.402 247.789,108.402 247.789,116.786 232.792,123.779 232.792,132.094 225.761,132.094 
				225.761,196.529 220.904,196.529 220.904,215.053 218.585,215.053 218.585,241.827 528.458,241.827 528.458,213.821 
				526.505,213.821 			"/>
			<g>
				<polygon style="fill:#E6E6E6;" points="271.897,241.738 271.897,231.078 267.952,231.078 267.952,226.084 258.808,226.084 
					258.808,209.043 253.799,209.043 253.799,196.987 247.642,196.987 245.446,196.987 239.289,196.987 239.289,209.043 
					234.28,209.043 234.28,226.084 225.136,226.084 225.136,231.078 221.183,231.078 221.183,241.738 				"/>
				<polygon style="fill:#E6E6E6;" points="293.819,162.494 293.819,186.186 290.908,186.186 290.908,186.597 289.159,186.597 
					289.159,210.289 286.248,210.289 286.248,216.735 277.895,216.735 277.895,240.846 273.243,240.846 273.243,241.738 
					526.084,241.738 526.084,233.32 521.22,233.32 521.22,168.886 514.189,168.886 514.189,160.578 497.109,152.612 
					497.109,168.886 494.198,168.886 494.198,233.32 491.294,233.32 491.294,199.443 481.193,199.443 481.193,233.32 
					475.195,233.32 475.195,213.778 471.243,213.778 471.243,208.792 462.099,208.792 462.099,191.75 457.09,191.75 457.09,179.695 
					450.933,179.695 448.736,179.695 442.579,179.695 442.579,191.75 437.578,191.75 437.578,208.792 428.426,208.792 
					428.426,213.778 424.481,213.778 424.481,233.32 419.799,233.32 419.799,208.792 410.655,208.792 410.655,156.003 
					407.743,156.003 407.743,150.18 388.209,150.18 388.209,156.003 384.051,156.003 384.051,194.243 367.42,194.243 
					367.42,197.983 367.42,200.894 367.42,215.861 349.968,215.861 349.968,165.975 346.221,165.975 346.221,155.379 
					338.118,155.379 335.83,155.379 330.015,155.379 330.015,165.975 295.894,165.975 295.894,162.494 				"/>
			</g>
			<rect x="368.579" y="71.581" style="fill:#E0E0E0;" width="9.856" height="170.053"/>
		</g>
	</g>
	<g>
		<g>
			<g>
				<path style="fill:#E0E0E0;" d="M406.93,444.527c0.634,0,1.183-0.465,1.268-1.104l11.585-87.501h19.289l11.585,87.501
					c0.092,0.695,0.724,1.188,1.437,1.093c0.701-0.091,1.195-0.729,1.103-1.424l-11.731-88.605c-0.083-0.632-0.627-1.104-1.27-1.104
					h-21.538c-0.643,0-1.187,0.473-1.27,1.104l-11.731,88.605c-0.092,0.696,0.402,1.333,1.103,1.424
					C406.818,444.524,406.874,444.527,406.93,444.527z"/>
				<path style="fill:#E0E0E0;" d="M374.52,444.527c0.634,0,1.183-0.465,1.268-1.104l11.585-87.501h19.289l11.585,87.501
					c0.092,0.695,0.725,1.188,1.437,1.093c0.701-0.091,1.195-0.729,1.103-1.424l-11.731-88.605c-0.083-0.632-0.627-1.104-1.27-1.104
					h-21.538c-0.643,0-1.187,0.473-1.27,1.104l-11.731,88.605c-0.092,0.696,0.402,1.333,1.103,1.424
					C374.408,444.524,374.464,444.527,374.52,444.527z"/>
				<path style="fill:#EBEBEB;" d="M427.232,354.653h-42.653c-8.143,0-14.79-6.456-14.956-14.525l-1.59-64.249
					c-0.124-6.049,4.789-11.019,10.894-11.019h26.738c5.54,0,10.198,4.12,10.826,9.576L427.232,354.653z"/>
				<path style="fill:#EBEBEB;" d="M449.802,344.715H398.69v9.938h55.729c1.464,0,2.65-1.187,2.65-2.65v-0.021
					C457.07,347.969,453.816,344.715,449.802,344.715z"/>
			</g>
		</g>
	</g>
	<g>
		<polygon style="fill:#E0E0E0;" points="234.969,450.123 263.193,450.123 268.726,389.19 229.436,389.19 		"/>
		<path style="fill:#E0E0E0;" d="M248.667,399.328c0.781-25.421-5.464-77.878-15.61-98.265l0.695-0.344
			c10.544,21.23,16.437,73.422,15.719,98.632L248.667,399.328z"/>
		<path style="fill:#E0E0E0;" d="M257.69,317.828c-9.538,7.485-12.121,31.891-12.121,31.891
			C252.328,338.543,262.802,333.236,257.69,317.828z"/>
		<path style="fill:#E0E0E0;" d="M245.452,350.094c-0.173-0.055-0.281-0.226-0.258-0.406c0.102-1.007,2.701-24.656,12.262-32.165
			c0.1-0.077,0.231-0.101,0.351-0.062c0.121,0.037,0.217,0.13,0.258,0.25c3.84,11.567-0.929,17.514-6.447,24.391
			c-2.08,2.474-3.989,5.087-5.713,7.821c-0.072,0.116-0.199,0.187-0.336,0.187L245.452,350.094z M246.185,348.026
			c1.538-2.334,3.2-4.402,4.816-6.416c5.292-6.595,9.873-12.309,6.494-23.118C249.979,324.931,246.935,342.438,246.185,348.026z"/>
		<path style="fill:#E0E0E0;" d="M222.271,313.934c11.427,3.973,21.573,26.537,21.573,26.537
			C233.83,332.088,222.427,330.145,222.271,313.934z"/>
		<path style="fill:#E0E0E0;" d="M243.883,340.783c-2.435-1.973-4.987-3.797-7.641-5.464c-7.477-4.87-13.94-9.085-14.049-21.409
			c0.002-0.126,0.063-0.245,0.164-0.32c0.105-0.074,0.239-0.091,0.359-0.047c11.473,4.004,21.378,25.842,21.792,26.771
			c0.025,0.053,0.038,0.111,0.037,0.17c-0.003,0.211-0.177,0.38-0.388,0.377C244.059,340.866,243.963,340.838,243.883,340.783z
			 M236.679,334.672c2.1,1.366,4.254,2.771,6.384,4.425c-2.474-5.042-10.857-20.917-20.082-24.617
			C223.285,325.946,229.498,329.989,236.679,334.672z"/>
		<path style="fill:#E0E0E0;" d="M264.605,341.142c-11.848,8.976-15.75,42.928-15.75,42.928
			C257.37,370.536,270.537,360.132,264.605,341.142z"/>
		<path style="fill:#E0E0E0;" d="M248.699,384.522c-0.211-0.075-0.344-0.285-0.32-0.507c0.164-1.397,4.074-34.256,15.938-43.24
			c0.125-0.094,0.287-0.123,0.437-0.078c0.149,0.046,0.266,0.163,0.312,0.312c4.73,15.134-2.388,24.75-9.928,34.943
			c-1.975,2.693-4.059,5.479-5.877,8.375c-0.088,0.139-0.242,0.222-0.406,0.219C248.802,384.546,248.749,384.538,248.699,384.522z
			 M249.612,382.032c1.53-2.287,3.2-4.496,4.761-6.65c7.274-9.834,14.15-19.13,9.983-33.413
			C254.88,349.907,250.673,374.657,249.612,382.032z"/>
		<path style="fill:#E0E0E0;" d="M220.358,336.435c13.932,5.136,27.13,29.331,27.13,29.331
			C235.414,355.285,220.179,356.315,220.358,336.435z"/>
		<path style="fill:#E0E0E0;" d="M247.177,366.126c-3.731-3.239-7.719-5.339-11.583-7.376c-8.5-4.48-15.844-8.351-15.719-22.315
			c0.001-0.052,0.011-0.104,0.029-0.154c0.09-0.251,0.368-0.382,0.619-0.291c13.94,5.144,26.849,28.551,27.388,29.542
			c0.112,0.202,0.063,0.456-0.117,0.601c-0.085,0.072-0.193,0.111-0.304,0.109C247.374,366.242,247.264,366.201,247.177,366.126z
			 M220.835,337.138c0.133,12.816,7.126,16.508,15.235,20.769c3.403,1.679,6.661,3.637,9.741,5.854
			C242.197,357.798,231.723,341.634,220.835,337.138L220.835,337.138z"/>
		<path style="fill:#E0E0E0;" d="M249.729,302.788c-6.658,5.222-8.453,22.244-8.453,22.244
			C245.99,317.243,253.296,313.536,249.729,302.788z"/>
		<path style="fill:#E0E0E0;" d="M241.151,325.282c-0.118-0.04-0.193-0.157-0.179-0.281c0.101-0.702,1.92-17.202,8.585-22.439
			c0.072-0.053,0.164-0.07,0.25-0.047c0.084,0.029,0.151,0.095,0.18,0.18c2.677,8.07-0.648,12.215-4.504,17.015
			c-1.446,1.731-2.775,3.557-3.981,5.464c-0.047,0.081-0.133,0.132-0.226,0.133C241.233,325.312,241.189,325.304,241.151,325.282z
			 M241.697,323.854c1.077-1.623,2.232-3.075,3.364-4.48c3.692-4.597,6.868-8.578,4.527-16.125
			C244.351,307.76,242.252,319.959,241.697,323.854z"/>
		<path style="fill:#E0E0E0;" d="M237.998,313.739c-1.698-1.375-3.478-2.644-5.331-3.801c-5.222-3.403-9.733-6.345-9.811-14.931
			c-0.004-0.091,0.041-0.177,0.117-0.226c0.079-0.039,0.171-0.039,0.25,0c8,2.802,14.908,18.03,15.204,18.678
			c0.048,0.116,0.013,0.25-0.086,0.328c-0.047,0.036-0.105,0.056-0.164,0.055C238.106,313.832,238.042,313.795,237.998,313.739z"/>
	</g>
</g>
<g id="Background_simple" style="display:none;">
	<g style="display:inline;">
		<path style="fill:#407BFF;" d="M289.876,74.825c-21.564,2.847-42.358,8.907-60.801,18.413
			c-21.736,11.204-43.946,28.659-37.386,51.49c12.11,42.149,70.206,42.917,58.607,71.257c-13.139,32.102-4.328,69.757,54.63,80.228
			c111.982,19.889,247.351-96.484,209.331-160.43C490.587,95.973,404.376,59.71,289.876,74.825z"/>
		<path style="opacity:0.9;fill:#FFFFFF;" d="M289.876,74.825c-21.564,2.847-42.358,8.907-60.801,18.413
			c-21.736,11.204-43.946,28.659-37.386,51.49c12.11,42.149,70.206,42.917,58.607,71.257c-13.139,32.102-4.328,69.757,54.63,80.228
			c111.982,19.889,247.351-96.484,209.331-160.43C490.587,95.973,404.376,59.71,289.876,74.825z"/>
	</g>
</g>
<g id="Shadow">
	<g>
		<g>
			<path style="fill:#F5F5F5;" d="M713.365,454.771c0,3.387-151.491,6.132-338.365,6.132s-338.365-2.745-338.365-6.132
				c0-3.387,151.491-6.132,338.365-6.132S713.365,451.384,713.365,454.771z"/>
		</g>
	</g>
</g>
<g id="Character_3">
	<g>
		<g>
			<g>
				<g>
					<path style="fill:#895555;" d="M520.988,256.941c0.231,0.079,6.578,9.214,6.578,9.214l8.289-6.763l-5.682-4.9
						c0,0-9.462,2.118-9.324,2.284"/>
					<g>
						<g>
							<g>
								<g>
									<g>
										<path style="fill:#895555;" d="M530.471,254.804c0,0,1.629-3.333,0.599-6.222c-1.03-2.889-1.083-5.47-1.998-7.565
											c-0.914-2.095-1.829,0.851-1.998,2.517c-0.169,1.666-0.378,3.552-1.609,3.222c-1.231-0.329-9.002-8.053-10.76-8.316
											c-1.758-0.263-0.892,1.38-0.892,1.38s-1.755-1.719-2.87-1.254c-1.115,0.464-0.336,1.875-0.336,1.875
											s-1.219-1.113-1.905-0.163c-0.686,0.949,4.582,8.15,4.645,8.604c0,0-2.093-4.658-3.569-4.336
											c-1.476,0.322,0.16,3.231,1.416,5.579c1.256,2.348,3.333,4.43,5.861,5.431c2.528,1.001,6.245,4.008,8.974,2.45
											C528.758,256.45,530.471,254.804,530.471,254.804z"/>
									</g>
								</g>
							</g>
						</g>
						<g style="opacity:0.2;">
							<g>
								<g>
									<g>
										<g>
											<path d="M510.683,240.871c1.993,1.977,3.918,4.017,5.753,6.112c-0.538,0.499-1.025,1.034-1.487,1.606
												c-0.22,0.291,0.295,0.516,0.522,0.241c1.383-1.732,3.176-3.151,5.289-4.204c0.341-0.171,0.046-0.594-0.296-0.423
												c-0.528,0.263-1.023,0.541-1.505,0.851c0.008-0.05-0.01-0.098-0.045-0.14c-1.307-1.744-2.831-3.329-4.571-4.755
												c-0.268-0.211-0.698,0.163-0.423,0.389c1.7,1.395,3.199,2.943,4.472,4.645c0.053,0.063-0.638,0.586-0.561,0.593
												c-0.614,0.399-0.435,0.346-0.975,0.818c-1.835-2.094-3.749-4.13-5.753-6.112
												C510.858,240.253,510.44,240.631,510.683,240.871z"/>
										</g>
									</g>
								</g>
							</g>
						</g>
						<g style="opacity:0.2;">
							<g>
								<g>
									<g>
										<g>
											<path d="M519.704,247.914c3.212,0.894,5.219,3.33,5.253,6.28c0.001,0.334,0.597,0.314,0.596-0.02
												c-0.031-3.202-2.226-5.787-5.683-6.762C519.508,247.321,519.359,247.817,519.704,247.914z"/>
										</g>
									</g>
								</g>
							</g>
						</g>
					</g>
				</g>
				<path style="fill:#263238;" d="M576.468,234.335c0,0-9.104-3.412-12.253,7.285c-4.49,9.661-10.142,25.897-12.57,32.968
					l-18.931-20.156l-10.466,8.247l18.213,26.133c4.841,6.947,14.368,8.888,21.429,4.215c0.694-0.459,2.783-4.012,2.898-4.302
					l6.473-12.562C585.778,250.821,582.595,238.239,576.468,234.335z"/>
				<path style="opacity:0.2;enable-background:new    ;" d="M564.788,287.812v-31.103l-2.898,36.319c0,0,2.898-3.387,2.898-4.302"
					/>
			</g>
			<g>
				<g>
					<path style="fill:#263238;" d="M625.732,284.073c0,0-3.113,62.427-16.558,73.176h14.379c0,0,12.823-21.268,13.779-73.176
						H625.732z"/>
					<path style="opacity:0.6;fill:#FFFFFF;enable-background:new    ;" d="M625.732,284.073c0,0-3.113,62.427-16.558,73.176h14.379
						c0,0,12.823-21.268,13.779-73.176H625.732z"/>
					<path style="fill:#407BFF;" d="M566.408,352.075h65.587c2.481,0,4.493,2.011,4.493,4.493v5.853h-74.573v-5.853
						C561.915,354.087,563.927,352.075,566.408,352.075z"/>
					<path style="opacity:0.3;enable-background:new    ;" d="M566.408,352.075h65.587c2.481,0,4.493,2.011,4.493,4.493v5.853
						h-74.573v-5.853C561.915,354.087,563.927,352.075,566.408,352.075z"/>
					<path style="fill:#263238;" d="M633.671,434.053l-28.748-2.506v-45.252h-10.107v45.242l-28.851,2.516
						c-2.542,0.25-4.479,2.387-4.479,4.941v3.829h37.395h1.873h37.395v-3.829C638.15,436.441,636.213,434.303,633.671,434.053z"/>
					<path style="fill:#263238;" d="M570.793,447.574c0,3.649-2.958,6.608-6.608,6.608c-3.649,0-6.608-2.958-6.608-6.608
						c0-3.649,2.958-6.608,6.608-6.608C567.835,440.966,570.793,443.924,570.793,447.574z"/>
					<path style="fill:#263238;" d="M628.844,447.574c0,3.649,2.958,6.608,6.608,6.608c3.649,0,6.608-2.958,6.608-6.608
						c0-3.649-2.958-6.608-6.608-6.608C631.802,440.966,628.844,443.924,628.844,447.574z"/>
					<path style="fill:#263238;" d="M603.174,390.894h-6.16c-2.051,0-3.714-1.663-3.714-3.714v-28.422h13.587v28.422
						C606.888,389.231,605.225,390.894,603.174,390.894z"/>
					<path style="opacity:0.6;fill:#FFFFFF;enable-background:new    ;" d="M603.174,390.894h-6.16
						c-2.051,0-3.714-1.663-3.714-3.714v-28.422h13.587v28.422C606.888,389.231,605.225,390.894,603.174,390.894z"/>
					<g>
						<path style="fill:#263238;" d="M560.884,357.248h76.634c0.998,0,1.807,0.809,1.807,1.807v1.558
							c0,0.998-0.809,1.807-1.807,1.807h-76.633c-0.998,0-1.807-0.809-1.807-1.807v-1.558
							C559.077,358.057,559.886,357.248,560.884,357.248z"/>
						<path style="opacity:0.6;fill:#FFFFFF;enable-background:new    ;" d="M560.884,357.248h76.634
							c0.998,0,1.807,0.809,1.807,1.807v1.558c0,0.998-0.809,1.807-1.807,1.807h-76.633c-0.998,0-1.807-0.809-1.807-1.807v-1.558
							C559.077,358.057,559.886,357.248,560.884,357.248z"/>
					</g>
					<path style="fill:#407BFF;" d="M644.029,297.741l-23.035,0c-6.748,0-11.621-6.063-10.885-13.543l0.983-9.984
						c0.736-7.479,6.803-13.543,13.551-13.543h23.035c6.748,0,11.621,6.063,10.885,13.543l-0.983,9.984
						C656.844,291.677,650.777,297.741,644.029,297.741z"/>
					<path style="opacity:0.3;enable-background:new    ;" d="M644.029,297.741l-23.035,0c-6.748,0-11.621-6.063-10.885-13.543
						l0.983-9.984c0.736-7.479,6.803-13.543,13.551-13.543h23.035c6.748,0,11.621,6.063,10.885,13.543l-0.983,9.984
						C656.844,291.677,650.777,297.741,644.029,297.741z"/>
					<polygon style="opacity:0.2;enable-background:new    ;" points="639.119,260.671 631.706,297.741 624.706,297.741 
						630.303,260.671 					"/>
					<polygon style="opacity:0.2;enable-background:new    ;" points="636.779,297.741 636.458,302.208 624.269,302.208 
						624.706,297.741 					"/>
				</g>
				<g>
					<g>
						<g>
							<g>
								<g>
									<g>
										<g>
											<polygon style="fill:#895555;" points="509.876,409.8 508.256,435.449 497.151,437.109 494.925,409.262 											"/>
										</g>
									</g>
								</g>
							</g>
						</g>
						<g>
							<g>
								<g>
									<g>
										<g>
											<g>
												<g>
													<path style="fill:#263238;" d="M506.038,433.897c-1.488,1.38-3.407,1.434-4.864,0.296l-0.304-2.067
														c-0.264-1.779-1.318-2.913-3.231-2.669c-0.938,0.118-2.221,1.157-2.997,2.858c-1.392,3.05-3.557,4.371-3.557,4.371
														s-8.539,4.246-11.604,5.185c-1.828,0.56-4.272,1.405-5.583,3.362c-0.374,0.56-0.712,1.222-1.005,2.004
														c-0.24,0.642-0.235,2.094-0.235,2.125l21.641-0.01c0,0,2.208-1.288,3.145-1.254c1.669,0.06,2.417,1.514,2.417,1.514
														l7.869,0.055c0,0,0.151-1.214,0.368-2.982l0.002-0.001c0.098-0.796,0.208-1.704,0.327-2.663
														c0.507-4.115,1.303-9.301,1.438-10.466C510.101,431.513,506.038,433.897,506.038,433.897z"/>
												</g>
												<g>
													<g>
														<g>
															<g>
																<g>
																	<path style="fill:#407BFF;" d="M486.483,438.775c0.098-0.087,0.247-0.096,0.359-0.025
																		c0.516,0.323,0.947,0.778,1.238,1.347c0.154,0.3-0.318,0.585-0.473,0.282c-0.259-0.505-0.636-0.908-1.086-1.191
																		c-0.15-0.095-0.174-0.291-0.043-0.409C486.481,438.778,486.482,438.777,486.483,438.775z"/>
																</g>
															</g>
														</g>
													</g>
												</g>
												<g>
													<g>
														<g>
															<g>
																<g>
																	<path style="fill:#407BFF;" d="M488.153,437.876c0.098-0.087,0.247-0.096,0.36-0.026
																		c0.515,0.324,0.947,0.779,1.238,1.347c0.153,0.3-0.318,0.585-0.473,0.282c-0.259-0.505-0.636-0.908-1.086-1.191
																		c-0.15-0.095-0.174-0.291-0.043-0.409C488.15,437.879,488.152,437.877,488.153,437.876z"/>
																</g>
															</g>
														</g>
													</g>
												</g>
												<g>
													<g>
														<g>
															<g>
																<g>
																	<path style="fill:#407BFF;" d="M489.875,437.038c0.098-0.088,0.247-0.096,0.36-0.025
																		c0.515,0.323,0.947,0.779,1.238,1.347c0.153,0.3-0.318,0.585-0.473,0.282c-0.259-0.505-0.636-0.908-1.086-1.191
																		c-0.15-0.095-0.174-0.291-0.043-0.409C489.872,437.04,489.873,437.039,489.875,437.038z"/>
																</g>
															</g>
														</g>
													</g>
												</g>
											</g>
										</g>
									</g>
								</g>
							</g>
						</g>
						<g style="opacity:0.2;enable-background:new    ;">
							<path style="fill:#FFFFFF;" d="M473.327,446.304c-0.152,0.31-0.299,0.638-0.433,0.997c-0.24,0.642-0.235,2.094-0.235,2.125
								l21.641-0.01c0,0,2.208-1.288,3.145-1.254c1.669,0.06,2.417,1.514,2.417,1.514l7.869,0.055c0,0,0.151-1.215,0.368-2.982
								l0.002-0.001c0.017-0.139,0.036-0.298,0.054-0.444H473.327z"/>
						</g>
						<g>
							<path style="fill:#407BFF;" d="M490.228,437.651l-0.27-0.219c-0.414-0.338-1.792-1.492-2.14-2.204
								c-0.359-0.734-0.424-1.538-0.177-2.206c0.141-0.382,0.459-0.801,0.926-0.83c0.35-0.018,0.715,0.195,1.013,0.615
								c0.414,0.584,0.664,1.327,0.743,2.208c0.069,0.773,0.001,1.544-0.064,2.289L490.228,437.651z M488.618,432.56
								c-0.009,0-0.019,0.001-0.028,0.001c-0.291,0.018-0.506,0.329-0.603,0.59c-0.211,0.573-0.152,1.272,0.163,1.915
								c0.223,0.457,1.018,1.221,1.771,1.856c0.051-0.619,0.089-1.251,0.033-1.873c-0.073-0.816-0.301-1.498-0.677-2.028
								C489.155,432.846,488.908,432.56,488.618,432.56z"/>
						</g>
						<g>
							<path style="fill:#407BFF;" d="M489.86,437.536l0.137-0.32c0.294-0.691,0.599-1.404,1.021-2.05
								c0.483-0.739,1.053-1.277,1.694-1.599c0.459-0.229,0.878-0.253,1.182-0.066c0.399,0.245,0.483,0.764,0.428,1.168
								c-0.097,0.705-0.533,1.385-1.194,1.863c-0.644,0.466-2.402,0.835-2.926,0.937L489.86,437.536z M493.425,433.744
								c-0.203,0-0.414,0.087-0.547,0.153c-0.582,0.291-1.104,0.786-1.551,1.471c-0.34,0.521-0.605,1.097-0.852,1.669
								c0.963-0.205,2.023-0.505,2.436-0.803c0.581-0.42,0.961-1.007,1.044-1.614c0.038-0.276-0.007-0.651-0.255-0.803
								C493.617,433.764,493.522,433.744,493.425,433.744z"/>
						</g>
					</g>
					<path style="opacity:0.4;enable-background:new    ;" d="M508.421,432.842l1.455-23.042l-14.951-0.539l1.65,20.646
						c-0.702,0.474-1.425,1.296-1.932,2.407c-0.21,0.46-0.438,0.875-0.673,1.258c-0.027-0.022-0.045-0.052-0.076-0.071
						c-0.304-0.188-0.723-0.164-1.182,0.066c-0.641,0.322-1.211,0.86-1.694,1.599c-0.272,0.416-0.493,0.861-0.696,1.309
						c0.03-0.482,0.044-0.97,0-1.459c-0.079-0.881-0.329-1.624-0.743-2.208c-0.298-0.419-0.663-0.633-1.013-0.615
						c-0.467,0.029-0.785,0.448-0.926,0.83c-0.247,0.668-0.182,1.472,0.177,2.206c0.314,0.642,1.46,1.639,1.986,2.077
						c0.001,0.003,0.002,0.005,0.003,0.008c-0.353,0.172-0.765,0.372-1.221,0.591c-0.025-0.017-0.048-0.037-0.074-0.053
						c-0.112-0.071-0.262-0.062-0.36,0.026c-0.001,0.001-0.003,0.003-0.004,0.004c-0.081,0.073-0.097,0.174-0.066,0.265
						c-0.4,0.191-0.824,0.392-1.264,0.599c-0.109-0.057-0.245-0.051-0.336,0.031c-0.002,0.001-0.003,0.003-0.004,0.004
						c-0.05,0.045-0.071,0.103-0.077,0.161c-2.511,1.175-5.394,2.462-6.92,2.93c-1.828,0.56-4.272,1.405-5.583,3.362
						c-0.374,0.56-0.712,1.222-1.005,2.004c-0.24,0.642-0.235,2.094-0.235,2.125h0c0,0.034,0,0.061,0,0.065l21.641-0.01
						c0,0,2.208-1.288,3.145-1.254c1.669,0.06,2.416,1.514,2.416,1.514l7.869,0.055c0,0,0.151-1.215,0.368-2.982l0.002-0.001
						c0.017-0.139,0.036-0.298,0.054-0.444h-0.008c0.086-0.705,0.18-1.468,0.281-2.284c0.507-4.115,1.303-9.301,1.438-10.466
						C509.968,432.666,509.257,432.616,508.421,432.842z M491.327,435.368c0.447-0.684,0.969-1.179,1.551-1.471
						c0.133-0.066,0.344-0.153,0.547-0.153c0.097,0,0.193,0.02,0.276,0.071c0.03,0.018,0.047,0.048,0.071,0.072
						c-1.276,1.936-2.687,2.798-2.687,2.798s-0.212,0.105-0.581,0.286C490.743,436.422,491,435.869,491.327,435.368z
						 M488.15,435.065c-0.315-0.643-0.374-1.341-0.163-1.915c0.097-0.261,0.312-0.572,0.603-0.59c0.009,0,0.019-0.001,0.028-0.001
						c0.29,0,0.537,0.286,0.66,0.46c0.376,0.53,0.604,1.212,0.677,2.028c0.056,0.622,0.018,1.254-0.033,1.873
						C489.168,436.287,488.373,435.523,488.15,435.065z"/>
					<g>
						<g>
							<g>
								<g>
									<g>
										<g>
											<polygon style="fill:#895555;" points="530.387,409.8 528.767,435.449 517.661,437.109 515.436,409.262 											"/>
										</g>
									</g>
								</g>
							</g>
						</g>
						<g>
							<g>
								<g>
									<g>
										<g>
											<g>
												<g>
													<path style="fill:#263238;" d="M526.549,433.897c-1.488,1.38-3.407,1.434-4.864,0.296l-0.304-2.067
														c-0.264-1.779-1.318-2.913-3.23-2.669c-0.938,0.118-2.221,1.157-2.997,2.858c-1.391,3.05-3.557,4.371-3.557,4.371
														s-8.539,4.246-11.604,5.185c-1.828,0.56-4.272,1.405-5.583,3.362c-0.374,0.56-0.712,1.222-1.005,2.004
														c-0.24,0.642-0.235,2.094-0.235,2.125l21.642-0.01c0,0,2.208-1.288,3.145-1.254c1.669,0.06,2.416,1.514,2.416,1.514
														l7.869,0.055c0,0,0.151-1.214,0.368-2.982l0.002-0.001c0.097-0.796,0.208-1.704,0.327-2.663
														c0.506-4.115,1.303-9.301,1.438-10.466C530.612,431.513,526.549,433.897,526.549,433.897z"/>
												</g>
												<g>
													<g>
														<g>
															<g>
																<g>
																	<path style="fill:#407BFF;" d="M506.994,438.775c0.098-0.087,0.247-0.096,0.359-0.025
																		c0.516,0.323,0.947,0.778,1.238,1.347c0.154,0.3-0.318,0.585-0.473,0.282c-0.259-0.505-0.636-0.908-1.086-1.191
																		c-0.15-0.095-0.174-0.291-0.043-0.409C506.991,438.778,506.993,438.777,506.994,438.775z"/>
																</g>
															</g>
														</g>
													</g>
												</g>
												<g>
													<g>
														<g>
															<g>
																<g>
																	<path style="fill:#407BFF;" d="M508.664,437.876c0.098-0.087,0.247-0.096,0.36-0.026
																		c0.515,0.324,0.947,0.779,1.238,1.347c0.153,0.3-0.318,0.585-0.473,0.282c-0.259-0.505-0.636-0.908-1.086-1.191
																		c-0.15-0.095-0.174-0.291-0.043-0.409C508.661,437.879,508.662,437.877,508.664,437.876z"/>
																</g>
															</g>
														</g>
													</g>
												</g>
												<g>
													<g>
														<g>
															<g>
																<g>
																	<path style="fill:#407BFF;" d="M510.385,437.038c0.098-0.088,0.247-0.096,0.36-0.025
																		c0.515,0.323,0.947,0.779,1.238,1.347c0.153,0.3-0.318,0.585-0.473,0.282c-0.259-0.505-0.636-0.908-1.086-1.191
																		c-0.15-0.095-0.174-0.291-0.043-0.409C510.382,437.04,510.384,437.039,510.385,437.038z"/>
																</g>
															</g>
														</g>
													</g>
												</g>
											</g>
										</g>
									</g>
								</g>
							</g>
						</g>
						<g style="opacity:0.2;enable-background:new    ;">
							<path style="fill:#FFFFFF;" d="M493.838,446.304c-0.153,0.31-0.299,0.638-0.434,0.997c-0.24,0.642-0.235,2.094-0.235,2.125
								l21.642-0.01c0,0,2.208-1.288,3.145-1.254c1.669,0.06,2.416,1.514,2.416,1.514l7.869,0.055c0,0,0.151-1.215,0.368-2.982
								l0.002-0.001c0.017-0.139,0.036-0.298,0.054-0.444H493.838z"/>
						</g>
						<g>
							<path style="fill:#407BFF;" d="M510.739,437.651l-0.271-0.219c-0.414-0.338-1.792-1.492-2.14-2.204
								c-0.359-0.734-0.424-1.538-0.177-2.206c0.141-0.382,0.459-0.801,0.926-0.83c0.355-0.018,0.715,0.195,1.013,0.615
								c0.414,0.584,0.664,1.327,0.743,2.208c0.069,0.773,0.001,1.544-0.064,2.289L510.739,437.651z M509.129,432.56
								c-0.009,0-0.019,0.001-0.028,0.001c-0.291,0.018-0.506,0.329-0.603,0.59c-0.211,0.573-0.152,1.272,0.163,1.915
								c0.223,0.457,1.018,1.221,1.771,1.856c0.051-0.619,0.089-1.251,0.033-1.873c-0.073-0.816-0.301-1.498-0.676-2.028
								C509.665,432.846,509.419,432.56,509.129,432.56z"/>
						</g>
						<g>
							<path style="fill:#407BFF;" d="M510.371,437.536l0.137-0.32c0.294-0.691,0.599-1.404,1.021-2.05
								c0.483-0.739,1.053-1.277,1.694-1.599c0.459-0.229,0.878-0.253,1.182-0.066c0.399,0.245,0.482,0.764,0.428,1.168
								c-0.097,0.705-0.533,1.385-1.194,1.863c-0.644,0.466-2.402,0.835-2.926,0.937L510.371,437.536z M513.936,433.744
								c-0.203,0-0.414,0.087-0.547,0.153c-0.582,0.291-1.104,0.786-1.551,1.471c-0.34,0.521-0.605,1.097-0.852,1.669
								c0.963-0.205,2.023-0.505,2.436-0.803c0.581-0.42,0.961-1.007,1.044-1.614c0.038-0.276-0.006-0.651-0.255-0.803
								C514.128,433.764,514.033,433.744,513.936,433.744z"/>
						</g>
					</g>
					<g id="_x3C_Group_x3E__00000035505613907293587140000010680175900491586202_">
						<path style="fill:#263238;" d="M574.177,319.349c0,0-52.704,4.535-72.827,11.706c-2.907,1.036-4.797,2.471-6.426,4.385
							c-9.393,11.039-6.813,85.376-6.813,85.376l23.667,0.989c0,0-2.553-56.931,2.7-60.574c5.253-3.643,62.904-14.056,62.904-14.056
							l-1.078-28.433L574.177,319.349z"/>
						<path style="opacity:0.4;enable-background:new    ;" d="M570.415,326.272l-45.036,0.559
							c-9.944,0.168-18.536,5.153-19.78,10.85l0.237,32.046l1.434,52.078h23.556l0.573-61.971L570.415,326.272z"/>
						<path style="fill:#263238;" d="M510.918,423.987l-1.494-54.26l-0.237-32.046c1.244-5.697,6.258-8.655,12.07-9.127
							l49.157-2.283l7.386-13.592l45.452,6.204c0,0-0.753,23.197-7.232,31.705c-5.07,6.659-75.787,7.521-81.034,9.245l0.224,64.152
							H510.918z"/>
					</g>
				</g>
			</g>
			<g>
				<path style="fill:#895555;" d="M603.757,229.323c0,0-1.535-6.536,1.28-18.374c-0.001-0.012-0.629-0.255-0.63-0.268
					c0.387-1.655,0.81-3.188,1.214-4.518c0.009-0.038,0.008-0.051,0.008-0.051l-15.485,10.646
					c0.557,3.714-0.431,10.992-1.082,14.077c0,0-1.747,5.615,5.602,5.498C600.034,236.248,603.757,229.323,603.757,229.323z"/>
				<g>
					<g>
						<g>
							<g>
								<path style="fill:#263238;" d="M609.043,179.049c0,0-4.772-10.89-18.065-6.371c-8.379,2.849-14.333,6.592-13.449,14.156
									c0.588,5.029,5.446,8.784,8.538,8.569c3.092-0.215,25.635-8.007,25.635-8.007S616.772,181.184,609.043,179.049z"/>
							</g>
						</g>
						<g style="opacity:0.2;">
							<g>
								<path d="M598.466,219.444c-1.919,2.197-5.255,3.434-8.314,3.499c0.044-0.272,0.036-0.681,0.068-0.952
									c0.052-0.426,0.048-1.078,0.072-1.526c0.025-0.55,0.034-1.148,0.006-1.717c-0.026-0.226-0.117-0.193-0.144-0.419
									l-0.054-0.464l9.264-3.145C600.115,215.268,600.013,217.66,598.466,219.444z"/>
							</g>
						</g>
						<g>
							<g>
								<path style="fill:#895555;" d="M611.005,196.711c2.219-9.946-6.421-19.104-16.736-16.712
									c-10.47,2.428-14.22,17.119-13.502,26.488c0.797,10.409,12.461,16.987,21.329,10.449
									C607.992,212.591,608.785,206.657,611.005,196.711L611.005,196.711z"/>
							</g>
						</g>
						<g>
							<g>
								<g>
									<path style="fill:#263238;" d="M603.849,181.097c0,0-8.867,8.25-17.53,3.986
										C577.656,180.819,596.767,172.301,603.849,181.097z"/>
								</g>
							</g>
						</g>
						<g>
							<g>
								<g>
									<g>
										<g>
											<path style="fill:#263238;" d="M602.078,200.24c1.617,1.875,3.017-0.032,6.856-2.067c0.527-0.279,1.106-0.499,1.91-0.524
												c-0.902,3.327-1.772,6.086-2.474,8.07c-0.21,0.595-0.435,1.136-0.684,1.636c2.976-3.574,6.395-7.823,7.472-9.746
												c0.218-0.388,0.391-0.765,0.524-1.132c-0.058-0.135-0.116-0.266-0.181-0.394c-0.274-0.565-0.619-1.083-1.016-1.563
												c-0.63-0.754-1.401-1.408-2.252-1.971c-2.76-1.833-5.87-2.641-8.511-3.075
												C603.456,192.636,600.755,198.703,602.078,200.24z"/>
										</g>
									</g>
								</g>
							</g>
						</g>
						<g>
							<g>
								<g>
									<g>
										<path style="fill:#263238;" d="M601.4,183.576c0,0,2.405,1.968,2.372,4.367c-0.033,2.398-0.748,4.865-0.748,4.865
											s7.294,2.273,9.089,1.774c1.795-0.499,2.68-5.758,2.68-5.758s-8.975-8.703-12.163-8.153
											C599.443,181.221,601.4,183.576,601.4,183.576z"/>
									</g>
								</g>
							</g>
						</g>
						<g>
							<g>
								<g>
									<path style="fill:#263238;" d="M608.74,180.661c0,0,4.115-1.143,6.899,3.156c2.784,4.299,1.688,9.811,0.042,12.661
										C614.034,199.327,603.841,190.28,608.74,180.661z"/>
								</g>
							</g>
						</g>
					</g>
				</g>
				<g>
					<path style="fill:#895555;" d="M613.781,203.942c-1.079,2.631-3.276,4.505-5.451,5.356c-3.272,1.28-4.138-2.25-3.549-5.534
						c0.531-2.955,1.72-6.507,5.159-6.383C613.327,197.502,615.014,200.934,613.781,203.942z"/>
					<path style="fill:#263238;" d="M596.607,198.91c-0.092,1.037-0.716,1.823-1.394,1.757c-0.678-0.067-1.154-0.961-1.062-1.998
						c0.091-1.037,0.716-1.824,1.394-1.757C596.222,196.978,596.698,197.873,596.607,198.91z"/>
					<path style="fill:#263238;" d="M586.556,198.232c-0.091,1.037-0.715,1.824-1.393,1.757c-0.678-0.067-1.154-0.961-1.063-1.998
						c0.091-1.037,0.716-1.823,1.394-1.757C586.172,196.3,586.647,197.195,586.556,198.232z"/>
					<path style="fill:#773737;" d="M589.547,196.987c0,0-3.738,4.862-4.975,6.867c1.328,1.431,3.867,1.05,3.867,1.05
						L589.547,196.987z"/>
					<path style="fill:#263238;" d="M599.271,193.303c-0.162,0.05-0.347,0.014-0.481-0.111c-1.559-1.454-3.193-1.124-3.363-1.086
						c-0.262,0.063-0.527-0.098-0.592-0.358c-0.065-0.261,0.095-0.523,0.355-0.586c0.092-0.022,2.285-0.522,4.265,1.325
						c0.198,0.184,0.209,0.492,0.026,0.687C599.42,193.236,599.348,193.279,599.271,193.303z"/>
					
						<path style="opacity:0.2;fill:none;stroke:#000000;stroke-width:0.5;stroke-linecap:round;stroke-linejoin:round;stroke-miterlimit:10;" d="
						M611.638,200.826c-0.368-0.665-1.211-0.971-1.961-0.856c-0.751,0.116-1.407,0.587-1.909,1.157
						c-0.602,0.684-1.022,1.528-1.204,2.421"/>
					<path style="fill:#263238;" d="M582.016,192.497c-0.088-0.027-0.17-0.08-0.233-0.158c-0.171-0.209-0.142-0.517,0.064-0.688
						c2.073-1.71,4.208-1.033,4.308-1.015c0.256,0.083,0.399,0.357,0.319,0.614c-0.08,0.256-0.35,0.397-0.604,0.318
						c-0.088-0.032-1.739-0.532-3.403,0.84C582.336,192.517,582.166,192.544,582.016,192.497z"/>
				</g>
				<g>
					<g>
						<g>
							<path style="fill:#FFFFFF;" d="M595.887,207.075c0,0-2.504,1.556-6.893,1.561c0,0,0.796,3.007,3.61,2.759
								C596.006,211.094,595.887,207.075,595.887,207.075z"/>
						</g>
					</g>
					<g>
						<path style="fill:#263238;" d="M592.715,205.758c-1.61,0.048-3.185,0.602-4.381,1.68c-0.462,0.416-0.854,0.895-1.014,1.405
							c-0.513,1.633,5.283,0.491,7.66-0.421c2.377-0.911,1.828-1.842,0.487-2.391C594.825,205.768,593.706,205.728,592.715,205.758z
							"/>
					</g>
				</g>
				<path style="opacity:0.3;fill:#FFFFFF;" d="M603.564,190.267c0,0,4.227,2.717,8.455,1.936c4.229-0.781,5.325-1.714,5.325-1.714
					l-0.306,2.301c0,0-3.568,2.101-7.936,1.863c-4.368-0.238-6.218-1.329-6.218-1.329L603.564,190.267z"/>
			</g>
			<g>
				<g>
					<g>
						<path style="fill:#FFFFFF;" d="M579.603,231.99c5.105-0.317,26.153-0.684,46.992,3.498l-4.847,69.957
							c0,0-4.835,5.357-9.241,14.836c-41.249,10.224-46.783,2.775-46.783-3.954c0-0.107-1.782,5.714-0.425-7.067
							c2.391-22.523,4.987-54.696,8.704-74.952C574.1,233.807,579.094,232.021,579.603,231.99z"/>
					</g>
					<g>
						<path style="opacity:0.4;enable-background:new    ;" d="M596.934,312.456c0,0-6.477,33.191-4.419,36.239
							c2.058,3.048,19.458,3.363,19.458,3.363s2.672-0.924,3.434-3.21L596.934,312.456z"/>
						<path style="fill:#263238;" d="M600.973,274.882c1.201-20.956,7.697-45.609,7.697-45.609
							c16.899,5.034,17.924,5.504,17.924,5.504s1.243,19.797,1.086,36.059c0,5.226-4.96,30.054-4.96,33.789l7.546,43.902
							c-0.17,3.514-27.534,0.727-35.993-0.193C591.414,347.971,599.772,295.838,600.973,274.882z"/>
						<path style="fill:#263238;" d="M566.407,320.45c0,0,9.666-1.896,11.214-33.9c1.673-34.592,10.521-57.06,10.521-57.06
							c0.345-0.079-19.017,5.201-19.017,5.201c-1.371,3.916-5.745,73.979-5.745,73.979l-4.875,13.389L566.407,320.45z"/>
						<path style="fill:#263238;" d="M602.823,224.143l6.766,5.54l1.352,10.695c0.159,3.65-0.99,7.237-3.243,10.124l-1.634,2.095
							l2.911,2.505c0.921,0.792,1.26,2.064,0.855,3.205l-9.118,25.704l0,0c0.183-6.756-0.339-18.921,2.232-36.752
							C603.906,240.247,602.699,231.796,602.823,224.143z"/>
						<path style="opacity:0.1;fill:#FFFFFF;enable-background:new    ;" d="M602.823,224.143l6.766,5.54l1.352,10.695
							c0.159,3.65-0.99,7.237-3.243,10.124l-1.634,2.095l2.911,2.505c0.921,0.792,1.26,2.064,0.855,3.205l-9.118,25.704l0,0
							c0.183-6.756-0.339-18.921,2.232-36.752C603.906,240.247,602.699,231.796,602.823,224.143z"/>
						<path style="fill:#263238;" d="M590.021,229.273c0,0-3.407,3.125-5.391,10.53c-1.984,7.405-6.827,39.98-6.931,44.092
							l-0.407-0.335l-3.29-28.274c0.202-1.388,0.993-2.623,2.174-3.392l3.169-2.066l0,0c-2.177-3.153-2.68-7.156-1.356-10.747
							c1.279-3.47,2.865-7.392,3.84-8.418c2.167-2.103,6.231-4.252,8.967-5.69L590.021,229.273z"/>
						<polygon style="fill:#407BFF;" points="596.31,239.504 593.784,243.297 590.471,243.123 589.565,238.753 593.551,234.491 
													"/>
						<polygon style="opacity:0.2;" points="594.153,243.01 590.978,312.941 583.283,322.701 576.531,310.93 591.914,242.71 						
							"/>
						<polygon style="fill:#407BFF;" points="594.174,242.712 589.228,312.863 581.359,322.701 576.275,311.196 590.346,242.519 
													"/>
						<path style="opacity:0.1;fill:#FFFFFF;enable-background:new    ;" d="M590.021,229.273c0,0-3.407,3.125-5.391,10.53
							c-1.984,7.405-6.827,39.98-6.931,44.092l-0.407-0.335l-3.29-28.274c0.202-1.388,0.993-2.623,2.174-3.392l3.169-2.066l0,0
							c-2.177-3.153-2.68-7.156-1.356-10.747c1.279-3.47,2.865-7.392,3.84-8.418c2.167-2.103,6.231-4.252,8.967-5.69
							L590.021,229.273z"/>
					</g>
					<path style="opacity:0.2;" d="M603.35,239.79l-5.878,3.507l-4.12-7.416l-4.591,5.374l-0.799-7.827c0,0,2.274,4.363,2.338,4.171
						s3.015-2.908,3.015-2.908l5.517,3.549l4.36-2.43C603.181,235.862,603.35,239.79,603.35,239.79z"/>
					<path style="fill:#FFFFFF;" d="M602.814,225.175l-8.697,6.638l-3.316-6.84l-3.051,7.303l1.402,7.589l4.399-5.373
						c0,0,4.032,7.247,4.359,7.389c0.327,0.142,5.283-5.986,5.283-5.986L602.814,225.175z"/>
				</g>
				<g>
					<path style="opacity:0.2;enable-background:new    ;" d="M636.498,256.78l-15.879-1.76l0.634,14.913l1.769,15.862
						l-17.189,2.727l-1.55,14.669c0,0,17.939,1.207,24.783,0.447c3.443-0.382,11.959-2.565,11.959-11.486
						C641.026,279.324,638.022,267.866,636.498,256.78z"/>
					<path style="fill:#895555;" d="M603.51,291.855l-3.561-2.999c0,0-3.736-1.333-5.774-1.338
						c-1.569,0.002-1.828,1.362-1.072,2.737c0,0-3.953-0.076-4.624,0.202c-0.298,0.124-1.144,0.611-1.36,2.535
						c-0.216,1.925,2.278,2.855,2.278,2.855s-0.499,0.549-0.358,2.189c0.14,1.64,2.235,1.539,2.122,1.75
						c-0.113,0.211-0.01,1.287,0.15,2.257c0.16,0.97,1.22,1.403,3.234,1.327c2.014-0.076,9.81-1.676,10.499-2.326
						c0,0,4.216,0.521,4.403,0.553c0.187,0.032,0.591-8.078,0.591-8.078L603.51,291.855z"/>
					<path style="fill:#263238;" d="M605.308,291.72l20.729-2.789l-2.956-18.999l0,0l-2.461-14.913l2.599-20.939
						c0,0,10.24,0.351,12.701,11.762c0.558,2.585,1.806,6.575,2.405,10.937h0c1.524,11.086,4.528,22.544,4.528,35.371
						c0,8.921-8.517,11.104-11.959,11.486c-6.844,0.76-26.61-0.447-26.61-0.447L605.308,291.72z"/>
					<path style="opacity:0.2;enable-background:new    ;" d="M626.086,288.859c0,0,5.232,1.463,6.924,7.175
						c0,0,0.609-2.356-1.351-5.438c-1.959-3.083-6.178-4.206-6.178-4.206L626.086,288.859z"/>
				</g>
			</g>
		</g>
		<g>
			<g>
				<path style="fill:#407BFF;" d="M458.673,344.823c0,19.802,0,39.605,0,59.407c0,0.483,0.75,0.483,0.75,0
					c0-19.802,0-39.605,0-59.407C459.423,344.34,458.673,344.339,458.673,344.823L458.673,344.823z"/>
			</g>
		</g>
		<g>
			<g>
				<g>
					<rect x="456.443" y="302.533" style="fill:#407BFF;" width="218.41" height="9.772"/>
					<rect x="464.018" y="312.305" style="fill:#407BFF;" width="202.236" height="142.481"/>
					<rect x="464.018" y="312.305" style="opacity:0.3;enable-background:new    ;" width="202.236" height="142.481"/>
				</g>
				<rect x="456.443" y="302.533" style="opacity:0.5;enable-background:new    ;" width="218.41" height="9.772"/>
			</g>
			<g>
				<g>
					<g style="opacity:0.5;enable-background:new    ;">
						<path d="M517.922,381.398c-1.941-0.51-3.52-1.188-4.732-2.039l2.366-5.315c1.141,0.753,2.463,1.36,3.969,1.82
							c1.504,0.462,2.985,0.692,4.441,0.692c2.767,0,4.15-0.692,4.15-2.075c0-0.729-0.395-1.269-1.184-1.62
							c-0.789-0.352-2.057-0.723-3.804-1.11c-1.918-0.413-3.52-0.855-4.807-1.329c-1.286-0.474-2.391-1.232-3.313-2.275
							c-0.923-1.043-1.384-2.451-1.384-4.224c0-1.553,0.425-2.954,1.274-4.205c0.85-1.249,2.117-2.238,3.805-2.967
							c1.687-0.729,3.756-1.092,6.207-1.092c1.675,0,3.325,0.188,4.951,0.563c1.626,0.377,3.059,0.929,4.297,1.657l-2.222,5.352
							c-2.427-1.311-4.781-1.966-7.063-1.966c-1.433,0-2.476,0.213-3.131,0.637c-0.655,0.425-0.983,0.978-0.983,1.656
							c0,0.681,0.389,1.189,1.165,1.529c0.776,0.341,2.026,0.692,3.75,1.056c1.941,0.413,3.55,0.855,4.824,1.329
							c1.274,0.474,2.378,1.226,3.313,2.258c0.935,1.031,1.402,2.434,1.402,4.204c0,1.529-0.425,2.913-1.274,4.15
							c-0.85,1.238-2.124,2.228-3.823,2.968c-1.699,0.74-3.762,1.11-6.188,1.11C521.866,382.163,519.864,381.908,517.922,381.398z"
							/>
						<path d="M556.968,363.777c1.493,1.456,2.239,3.653,2.239,6.59v11.286h-6.917v-10.157c0-2.694-1.08-4.041-3.24-4.041
							c-1.189,0-2.143,0.388-2.858,1.164c-0.716,0.777-1.074,1.942-1.074,3.495v9.539H538.2V354.64h6.917v9.102
							c0.753-0.704,1.639-1.238,2.658-1.602c1.019-0.364,2.111-0.547,3.276-0.547C553.503,361.593,555.476,362.321,556.968,363.777z
							"/>
						<path d="M568.018,380.67c-1.699-0.873-3.027-2.087-3.986-3.641c-0.959-1.553-1.438-3.313-1.438-5.278
							c0-1.941,0.478-3.69,1.438-5.243c0.959-1.553,2.281-2.761,3.969-3.622c1.686-0.861,3.598-1.293,5.733-1.293
							s4.054,0.432,5.753,1.293c1.698,0.861,3.022,2.063,3.968,3.604c0.947,1.541,1.42,3.294,1.42,5.261
							c0,1.966-0.473,3.726-1.42,5.278c-0.946,1.554-2.27,2.768-3.968,3.641c-1.699,0.874-3.617,1.312-5.753,1.312
							C571.622,381.981,569.717,381.544,568.018,380.67z M576.72,375.228c0.776-0.838,1.164-1.996,1.164-3.477
							c0-1.457-0.388-2.598-1.164-3.423c-0.777-0.824-1.772-1.237-2.986-1.237c-1.214,0-2.208,0.413-2.985,1.237
							c-0.776,0.825-1.165,1.966-1.165,3.423c0,1.48,0.389,2.639,1.165,3.477c0.777,0.837,1.771,1.256,2.985,1.256
							C574.947,376.483,575.942,376.065,576.72,375.228z"/>
						<path d="M620.225,361.921l-7.026,19.732h-6.699l-3.713-10.74l-3.859,10.74h-6.699l-7.026-19.732h6.554l4.041,11.941
							l4.186-11.941h5.898l4.077,12.051l4.186-12.051H620.225z"/>
					</g>
					<g style="opacity:0.5;enable-background:new    ;">
						<path d="M560.451,350.838h-2.991v-2.185h8.724v2.185h-2.977v7.555h-2.755V350.838z"/>
						<path d="M576.855,348.653l-4.174,9.739h-2.714l-4.159-9.739h2.977l2.643,6.345l2.699-6.345H576.855z"/>
					</g>
				</g>
				<g>
					<path style="fill:#FFFFFF;" d="M517.839,378.311c-1.941-0.51-3.52-1.189-4.732-2.039l2.366-5.315
						c1.141,0.753,2.463,1.36,3.969,1.82c1.504,0.462,2.985,0.692,4.441,0.692c2.767,0,4.15-0.692,4.15-2.075
						c0-0.729-0.395-1.268-1.184-1.62c-0.789-0.352-2.057-0.723-3.804-1.11c-1.918-0.413-3.52-0.855-4.807-1.329
						c-1.286-0.474-2.391-1.232-3.313-2.275c-0.923-1.043-1.384-2.451-1.384-4.224c0-1.553,0.425-2.954,1.274-4.205
						c0.85-1.249,2.117-2.238,3.805-2.967c1.687-0.729,3.756-1.092,6.207-1.092c1.675,0,3.325,0.188,4.951,0.563
						c1.626,0.377,3.059,0.929,4.297,1.657l-2.222,5.352c-2.427-1.31-4.781-1.966-7.062-1.966c-1.433,0-2.476,0.213-3.131,0.637
						c-0.655,0.425-0.983,0.978-0.983,1.656c0,0.681,0.389,1.189,1.165,1.529c0.776,0.341,2.026,0.692,3.75,1.056
						c1.941,0.413,3.55,0.855,4.824,1.329c1.274,0.474,2.378,1.226,3.312,2.258c0.935,1.031,1.402,2.434,1.402,4.204
						c0,1.529-0.425,2.913-1.274,4.15c-0.85,1.238-2.124,2.228-3.823,2.968c-1.699,0.74-3.762,1.11-6.189,1.11
						C521.783,379.076,519.781,378.821,517.839,378.311z"/>
					<path style="fill:#FFFFFF;" d="M556.885,360.69c1.493,1.456,2.239,3.653,2.239,6.59v11.286h-6.917v-10.157
						c0-2.694-1.08-4.041-3.24-4.041c-1.19,0-2.143,0.388-2.858,1.164c-0.716,0.777-1.074,1.942-1.074,3.495v9.539h-6.917v-27.014
						h6.917v9.102c0.753-0.704,1.639-1.238,2.658-1.602c1.02-0.364,2.111-0.547,3.276-0.547
						C553.42,358.506,555.393,359.234,556.885,360.69z"/>
					<path style="fill:#FFFFFF;" d="M567.935,377.583c-1.699-0.873-3.027-2.087-3.986-3.641c-0.959-1.553-1.438-3.313-1.438-5.278
						c0-1.941,0.479-3.689,1.438-5.243c0.959-1.553,2.281-2.761,3.969-3.622c1.687-0.861,3.598-1.293,5.733-1.293
						c2.136,0,4.054,0.432,5.753,1.293c1.698,0.861,3.022,2.064,3.968,3.604c0.947,1.541,1.42,3.294,1.42,5.261
						c0,1.966-0.473,3.725-1.42,5.278c-0.946,1.554-2.27,2.768-3.968,3.641c-1.699,0.874-3.617,1.311-5.753,1.311
						C571.539,378.895,569.634,378.457,567.935,377.583z M576.637,372.141c0.776-0.838,1.164-1.996,1.164-3.477
						c0-1.457-0.388-2.598-1.164-3.423c-0.777-0.824-1.772-1.237-2.986-1.237s-2.208,0.413-2.985,1.237
						c-0.776,0.825-1.165,1.966-1.165,3.423c0,1.48,0.389,2.639,1.165,3.477c0.777,0.837,1.771,1.256,2.985,1.256
						S575.859,372.978,576.637,372.141z"/>
					<path style="fill:#FFFFFF;" d="M620.142,358.834l-7.026,19.732h-6.699l-3.713-10.74l-3.859,10.74h-6.699l-7.026-19.732h6.554
						l4.041,11.941l4.187-11.941h5.898l4.077,12.051l4.186-12.051H620.142z"/>
				</g>
				<g>
					<path style="fill:#FFFFFF;" d="M560.369,347.751h-2.991v-2.185h8.724v2.185h-2.978v7.555h-2.755V347.751z"/>
					<path style="fill:#FFFFFF;" d="M576.773,345.566l-4.174,9.739h-2.714l-4.159-9.739h2.977l2.644,6.345l2.699-6.345H576.773z"/>
				</g>
			</g>
		</g>
		<g>
			<rect x="470.215" y="298.977" style="fill:#263238;" width="47.367" height="3.555"/>
			<rect x="470.215" y="298.977" style="opacity:0.5;fill:#FFFFFF;" width="47.367" height="3.555"/>
		</g>
	</g>
</g>
<g id="Speech_Bubble">
	<g>
		<g>
			<g>
				<path style="fill:#407BFF;" d="M520.884,162.399h23.755c6.092,0,11.03,4.938,11.03,11.03v13.311
					c0,6.091-4.938,11.03-11.03,11.03h-5.403l-0.863,6.151l-6.556-6.151h-10.933c-6.091,0-11.029-4.938-11.029-11.03v-13.311
					C509.854,167.337,514.792,162.399,520.884,162.399z"/>
			</g>
			<g>
				<path style="fill:#FFFFFF;" d="M527.152,180.128c0,1.568-1.271,2.839-2.839,2.839c-1.568,0-2.839-1.271-2.839-2.839
					c0-1.568,1.271-2.839,2.839-2.839C525.881,177.288,527.152,178.559,527.152,180.128z"/>
				<path style="fill:#FFFFFF;" d="M536.825,180.128c0,1.568-1.271,2.839-2.839,2.839c-1.568,0-2.839-1.271-2.839-2.839
					c0-1.568,1.271-2.839,2.839-2.839C535.553,177.288,536.825,178.559,536.825,180.128z"/>
				<path style="fill:#FFFFFF;" d="M546.753,180.128c0,1.568-1.271,2.839-2.839,2.839s-2.839-1.271-2.839-2.839
					c0-1.568,1.271-2.839,2.839-2.839S546.753,178.559,546.753,180.128z"/>
			</g>
		</g>
		<g>
			<g>
				<path style="fill:#407BFF;" d="M520.271,160.999c5.022,0,10.045,0,15.067,0c0.483,0,0.483-0.75,0-0.75
					c-5.022,0-10.045,0-15.067,0C519.788,160.249,519.787,160.999,520.271,160.999L520.271,160.999z"/>
			</g>
		</g>
		<g>
			<g>
				<path style="fill:#407BFF;" d="M537.228,160.999c0.421,0,0.841,0,1.262,0c0.196,0,0.384-0.173,0.375-0.375
					c-0.009-0.203-0.165-0.375-0.375-0.375c-0.421,0-0.841,0-1.262,0c-0.196,0-0.384,0.173-0.375,0.375
					C536.862,160.828,537.018,160.999,537.228,160.999L537.228,160.999z"/>
			</g>
		</g>
	</g>
</g>
<g id="Plant">
	<g>
		<g>
			<g>
				<path style="fill:#263238;" d="M676.289,418.369c-0.014-0.424-1.441-42.546-8.292-49.209
					c-6.664-6.478-14.312-0.241-14.634,0.027l-0.687-0.823c0.087-0.073,8.718-7.119,16.069,0.027
					c7.159,6.962,8.56,48.192,8.616,49.944L676.289,418.369z"/>
			</g>
			<g>
				<path style="fill:#263238;" d="M676.877,426.647c-0.049-0.504-4.682-50.568,13.601-71.551l0.809,0.704
					c-17.98,20.635-13.39,70.244-13.342,70.743L676.877,426.647z"/>
			</g>
			<g>
				<path style="fill:#263238;" d="M676.201,421.352l-1.07-0.071c0.038-0.568,3.578-56.916-9.833-69.251l0.726-0.79
					C679.811,363.921,676.355,419.012,676.201,421.352z"/>
			</g>
			<g>
				<path style="fill:#263238;" d="M677.947,421.32l-1.072-0.008c0.013-1.552,0.442-38.061,10.813-44.004
					c2.306-1.323,4.563-1.543,6.71-0.655c6.271,2.594,9.378,13.754,9.508,14.228l-1.035,0.283c-0.03-0.111-3.099-11.128-8.884-13.52
					c-1.824-0.753-3.763-0.554-5.766,0.594C678.38,383.877,677.95,420.946,677.947,421.32z"/>
			</g>
			<g>
				<path style="fill:#263238;" d="M673.908,421.346l-1.07-0.061c0.016-0.288,1.565-28.851-6.144-38.915
					c-1.868-2.438-3.895-3.6-6.037-3.45c-5.051,0.353-9.286,7.744-9.328,7.819l-0.934-0.528c0.184-0.325,4.56-7.966,10.186-8.36
					c2.517-0.179,4.863,1.125,6.965,3.868C675.496,392.099,673.977,420.158,673.908,421.346z"/>
			</g>
			<g>
				<path style="fill:#263238;" d="M675.598,425.232c-0.21-2.771-5.039-67.99,3.458-79.482l0.862,0.637
					c-8.262,11.175-3.301,78.089-3.251,78.763L675.598,425.232z"/>
			</g>
		</g>
		<g>
			<path style="fill:#407BFF;" d="M698.247,380.254c0,0-5.423,2.004-3.582,6.316c5.187,12.15,17.551,13.444,17.551,13.444
				s5.802-9.184,1.046-16.317C706.706,373.863,698.385,377.079,698.247,380.254z"/>
		</g>
		<g>
			<path style="fill:#407BFF;" d="M674.548,374.818c0,0,5.428-0.227,5.737,4.451c0.308,4.678-11.76,17.62-11.76,17.62
				s-8.612-3.113-6.762-14.787C663.613,370.428,673.199,371.94,674.548,374.818z"/>
		</g>
		<g>
			<path style="fill:#407BFF;" d="M677.18,347.555c0,0-2.28-0.28-3.137-2.332c-2.557-6.12,6.231-12.719,17.982-9.232
				c0,0,0.311,10.34-6.012,14.419C679.689,354.488,677.18,347.555,677.18,347.555z"/>
		</g>
		<g>
			<path style="fill:#407BFF;" d="M665.353,354.445c0,0-0.604,2.917-3.347,3.808c-8.182,2.657-15.781-9.404-10.027-24.224
				c0,0,13.4,0.694,18.001,9.301C674.581,351.937,665.353,354.445,665.353,354.445z"/>
		</g>
		<g>
			<path style="fill:#407BFF;" d="M657.043,379.623c0,0,1.891-2.594-0.967-2.848c-2.858-0.254-15.231,5.29-11.978,17.982
				c0,0,15.914-5.191,16.466-10.505C661.117,378.939,657.043,379.623,657.043,379.623z"/>
		</g>
		<g>
			<path style="fill:#407BFF;" d="M690.973,352.096c0,0,0.715-2.355,3.41-3.339c2.695-0.984,12.709-0.366,12.847,12.735
				c0,0-15.404,2.56-17.31-2.431C688.013,354.07,690.973,352.096,690.973,352.096z"/>
		</g>
		<g>
			<path style="fill:#407BFF;" d="M682.659,362.982c0,0,1.035-1.796,3.015-0.835c1.979,0.961,7.814,6.964,2.25,14.212
				c0,0-10.339-6.216-9.494-10.579C679.208,361.759,682.659,362.982,682.659,362.982z"/>
		</g>
		<g>
			<path style="fill:#407BFF;" d="M657.329,366.143c0,0,1.493-1.957-0.693-2.199c-2.187-0.242-11.986,2.373-9.704,12.156
				c0,0,11.938-0.897,12.45-4.961C659.893,367.074,657.329,366.143,657.329,366.143z"/>
		</g>
		<polygon style="fill:#263238;" points="693.996,454.785 659.753,454.785 656.058,417.294 697.69,417.294 		"/>
		<rect x="654.23" y="413.157" style="fill:#263238;" width="45.289" height="8.273"/>
	</g>
</g>
<g id="Character_2">
	<g>
		<g>
			<g>
				<path style="fill:#263238;" d="M311.016,450.02c0.655,0,1.224-0.481,1.311-1.142l11.978-90.466h19.943l11.978,90.466
					c0.095,0.718,0.749,1.228,1.486,1.131c0.725-0.095,1.236-0.753,1.14-1.473l-12.128-91.608c-0.086-0.653-0.648-1.142-1.313-1.142
					h-22.267c-0.665,0-1.227,0.489-1.313,1.142l-12.128,91.608c-0.095,0.719,0.416,1.378,1.141,1.473
					C310.901,450.016,310.959,450.02,311.016,450.02z"/>
				<path style="fill:#263238;" d="M277.508,450.02c0.655,0,1.223-0.481,1.311-1.142l11.978-90.466h19.943l11.978,90.466
					c0.095,0.718,0.75,1.228,1.486,1.131c0.725-0.095,1.236-0.753,1.141-1.473l-12.129-91.608c-0.086-0.653-0.648-1.142-1.313-1.142
					h-22.267c-0.665,0-1.227,0.489-1.313,1.142l-12.128,91.608c-0.095,0.719,0.416,1.378,1.141,1.473
					C277.393,450.016,277.451,450.02,277.508,450.02z"/>
				<path style="fill:#263238;" d="M332.006,357.1h-44.098c-8.419,0-15.292-6.674-15.463-15.017l-1.644-66.426
					c-0.129-6.254,4.952-11.393,11.263-11.393h27.644c5.728,0,10.544,4.26,11.193,9.9L332.006,357.1z"/>
				<path style="opacity:0.4;fill:#FFFFFF;" d="M332.006,357.1h-44.098c-8.419,0-15.292-6.674-15.463-15.017l-1.644-66.426
					c-0.129-6.254,4.952-11.393,11.263-11.393h27.644c5.728,0,10.544,4.26,11.193,9.9L332.006,357.1z"/>
				<path style="fill:#263238;" d="M355.588,346.824h-53.09V357.1h57.708c1.464,0,2.65-1.187,2.65-2.65v-0.357
					C362.856,350.078,359.602,346.824,355.588,346.824z"/>
				<path style="opacity:0.4;fill:#FFFFFF;" d="M355.588,346.824h-53.09V357.1h57.708c1.464,0,2.65-1.187,2.65-2.65v-0.357
					C362.856,350.078,359.602,346.824,355.588,346.824z"/>
			</g>
		</g>
		<g>
			<g>
				<path style="fill:#263238;" d="M333.999,191.631c5.956,3.977,7.658,9.692,7.581,13.83c-0.738,5.588-2.677,9.544-4.185,14.975
					l-14.819-32.705C326.038,188.418,327.595,187.707,333.999,191.631z"/>
				<path style="fill:#263238;" d="M326.569,188.742c-5.804-2.7-11.5,0.486-14.821,2.7c-3.634,3.083-5.775,7.573-5.885,12.337
					c0,4.454,0,9.854,2.7,12.175c1.513,1.345,3.521,1.991,5.534,1.782l22.029-20.328
					C333.728,193.754,330.439,190.771,326.569,188.742z"/>
				<g>
					<path style="fill:#B97964;" d="M326.945,248.959c-1.694,1.747-3.241,1.164-5.501,0.24c-13.452-4.838-9.471-11.333-9.471-11.333
						c2.552-2.994,2.664-6.576,1.734-12.036c-0.018-0.159-0.025-0.32-0.021-0.48c0.009-0.729,0.243-1.436,0.67-2.027
						c1.124-1.644,3.368-2.066,5.012-0.942c0.001,0.001,0.003,0.002,0.004,0.003l6.022,1.721l0,0
						c0.016,0.083,0.033,0.165,0.052,0.258c0.017,2.986-0.068,5.305-0.048,7.128c0.043,0.217,0.004,0.451,0.014,0.664l0,0
						c0.043,0.217,0.027,0.457,0.027,0.672c0.145,2.498,4.371,6.167,6.093,7.037C332.578,240.464,332.692,243.068,326.945,248.959z"
						/>
					<path style="opacity:0.2;enable-background:new    ;" d="M325.391,224.085L325.391,224.085
						c0.003,0.092,0.022,0.183,0.054,0.269c0.016,2.986-0.068,5.304-0.048,7.128c-0.012,0.221-0.007,0.443,0.014,0.664l0,0
						c0.013,0.233,0.041,0.464,0.085,0.693l0,0c-4.576-1.245-8.661-3.862-11.704-7.499l0,0c0.006-0.718,0.221-1.418,0.618-2.016
						c1.108-1.654,3.345-2.102,5.005-1.001L325.391,224.085z"/>
					<path style="fill:#B97964;" d="M309.16,205.082c0.231,10.298,0.101,14.647,4.993,20.24c7.368,8.398,19.705,6.157,22.545-3.949
						c2.482-9.099,1.738-24.381-7.971-29.107C319.019,187.54,308.938,194.771,309.16,205.082z"/>
					<path style="fill:#B97964;" d="M304.6,213.903c1.042,2.223,2.913,3.722,4.693,4.332c2.678,0.917,4.463-3.362,3.761-6.182
						c-0.632-2.539-3.182-4.399-5.891-4.087C304.496,208.275,303.409,211.361,304.6,213.903z"/>
					
						<path style="opacity:0.2;fill:none;stroke:#000000;stroke-width:0.5;stroke-linecap:round;stroke-linejoin:round;stroke-miterlimit:10;" d="
						M310.429,213.841c0.017-0.985-0.37-1.97-1.052-2.679c-0.683-0.71-1.653-1.134-2.637-1.155"/>
					<g>
						<g>
							<path style="fill:#263238;" d="M322.577,209.516c-0.042,1.098,0.475,2.046,1.153,2.117c0.678,0.072,1.262-0.76,1.304-1.858
								c0.042-1.098-0.475-2.046-1.153-2.117C323.203,207.586,322.619,208.417,322.577,209.516z"/>
							<path style="fill:#263238;" d="M332.773,210.347c-0.038,1.064,0.479,1.985,1.156,2.056c0.676,0.071,1.256-0.733,1.294-1.798
								c0.038-1.064-0.479-1.985-1.156-2.056C333.391,208.477,332.812,209.283,332.773,210.347z"/>
							<path style="fill:#263238;" d="M320.743,205.524c0.13,0.026,0.267-0.001,0.378-0.087c1.717-1.34,3.466-0.671,3.486-0.663
								c0.259,0.1,0.541-0.028,0.625-0.294c0.083-0.266-0.062-0.564-0.324-0.669c-0.091-0.036-2.286-0.878-4.417,0.786
								c-0.212,0.166-0.243,0.488-0.07,0.72C320.504,205.429,320.621,205.5,320.743,205.524z"/>
							<path style="fill:#263238;" d="M336.64,205.449c0.107-0.026,0.2-0.096,0.256-0.206c0.114-0.226,0.024-0.533-0.2-0.686
								c-2.25-1.528-4.087-0.666-4.165-0.628c-0.218,0.106-0.293,0.395-0.167,0.646c0.125,0.251,0.404,0.368,0.622,0.264
								c0.071-0.035,1.507-0.679,3.296,0.536C336.398,205.455,336.527,205.477,336.64,205.449z"/>
							<path style="fill:#A24E3F;" d="M330.043,209.608c0,0,1.29,4.006,2.91,6.572c0.283,0.449,0.034,1.047-0.478,1.188
								c-1.316,0.362-2.774-0.19-2.774-0.19L330.043,209.608z"/>
						</g>
						<path style="fill:#263238;" d="M323.488,207.669l2.42-0.36C325.908,207.31,324.461,208.969,323.488,207.669z"/>
						<path style="fill:#263238;" d="M333.822,208.553l2.42-0.36C336.241,208.193,334.794,209.852,333.822,208.553z"/>
					</g>
				</g>
				<g>
					<path style="fill:#263238;" d="M329.03,220.006c-0.854,0.958-2.001,2.892-2.001,2.892c-0.194-0.072-0.388-0.145-0.578-0.227
						c-2.606-1.047-3.469-2.394-3.635-3.569c-0.089-0.643,0.04-1.24,0.204-1.702c0.185-0.536,0.44-0.877,0.44-0.877
						c1.05,1.38,3.404,2.543,4.687,3.112C328.682,219.879,329.03,220.006,329.03,220.006z"/>
					<path style="fill:#FFFFFF;" d="M328.147,219.635l-0.612,0.837c-2.452-0.992-4.045-2.019-4.515-3.073
						c0.185-0.536,0.44-0.877,0.44-0.877C324.509,217.904,326.863,219.067,328.147,219.635z"/>
					<path style="fill:#DE5753;" d="M326.451,222.671c-2.606-1.047-3.469-2.394-3.635-3.569c0.874,0.391,1.885,0.96,2.663,1.736
						C326.076,221.429,326.34,222.078,326.451,222.671z"/>
				</g>
				<path style="fill:#263238;" d="M312.727,207.592c0,0,5.884-6.722,6.066-12.472c0,0,21.051-4.67,19.109,13.498
					c0,0,4.55-15.712-12.648-18.277c-17.198-2.565-20.747,19.896-12.952,27.725C312.332,217.986,309.087,211.804,312.727,207.592z"
					/>
				<path style="fill:#263238;" d="M294.379,193.909c0.402,4.686,4.526,8.16,9.212,7.758c4.686-0.402,8.16-4.526,7.758-9.213
					c-0.378-4.405-4.063-7.788-8.484-7.789C297.978,184.895,294.19,189.021,294.379,193.909z"/>
				<path style="fill:#263238;" d="M333.074,192.591c2.264,2.172,3.776,5.009,4.319,8.099c0,2.241-3.051,3.86-3.051,3.86
					l-3.725-4.886v4.292c-6.101-0.67-9.628-3.909-11.717-8.585l3.402-6.074C322.302,189.297,331.049,190.836,333.074,192.591z"/>
				<g>
					<path style="fill:#263238;" d="M304,198.82c-0.525,2.43-1.963,4.651-3.965,6.124c1.077,0.09,2.182-0.176,3.099-0.748
						c-0.044,0.878-0.239,1.748-0.574,2.56c2.469-2.055,3.927-5.272,3.843-8.484L304,198.82z"/>
				</g>
			</g>
			<g>
				<g>
					<g>
						<path style="fill:#263238;" d="M424.499,420.478l-10.207,0.292c0,0-18.22-35.078-26.969-54.75
							c-10.338-23.244-8.062-30.731-11.163-30.866c-5.725-0.25-64.142,26.609-78.776,11.712
							c-14.634-14.897,6.536-50.796,6.536-50.796s32.608-5.036,35.267,2.919c0.651,2.351,2.072,4.78,2.414,7.195
							c0.394,2.385,1.188,5.91,1.188,5.91l0,0c0.773-0.193,23.12-2.357,36.991-2.039c8.356,0.191,15.799,5.266,19.124,12.935
							C411.442,351.906,424.499,420.478,424.499,420.478z"/>
						<path style="fill:#263238;" d="M321.672,350.456c0,0,2.385,0,39.358-1.67c0,0-5.076,11.988-6.489,36.678
							c-0.581,10.156,1.04,43.053-0.231,57.611c0.644,0.908,7.439,3.918,11.583,0.877c0,0,23.989-86.567,23.75-98.315
							c-0.239-11.748-13.859-15.207-13.859-15.207S349.544,345.638,321.672,350.456z"/>
						<path style="opacity:0.2;enable-background:new    ;" d="M356.062,340.772c5.061-2.04,10.032-4.291,14.902-6.747
							c8.45-4.261,18.84,1.221,19.634,10.652c0.026,0.314,0.044,0.634,0.052,0.961c0.119,4.771-4.14,22.661-10.234,42.113
							c0.158-1.152,0.377-2.294,0.656-3.423c6.047-24.295,9.076-36.913,6.047-42.793c-2.038-3.653-5.273-6.492-9.16-8.039
							l-33.037,16.101c-18.2,0.799-20.919,0.835-21.242,0.835C334.781,348.346,345.633,345.108,356.062,340.772z"/>
						<g>
							<g>
								<path style="fill:#407BFF;" d="M367.621,439.039c0.041-0.525-0.41-0.96-0.936-0.96h-3.109
									c-0.785-0.019-1.639,1.382-2.118,2.004c-2.066,2.684-3.545,1.615-5.658-1.006c-1.379-0.195-1.79,1.384-1.913,1.808
									l-2.821,9.37c-0.244,0.782,0.192,1.614,0.974,1.859c0.139,0.043,0.284,0.066,0.43,0.067
									c4.212,0.102,6.205,0.15,11.448,0.276l16.034,0.387c4.371,0.105,5.383-4.277,3.592-4.728
									c-8.053-1.984-13.728-4.505-16.174-6.921C367.028,440.876,367.547,440.002,367.621,439.039z"/>
								
									<path style="fill:none;stroke:#FFFFFF;stroke-width:0.5;stroke-linecap:round;stroke-linejoin:round;stroke-miterlimit:10;" d="
									M369.002,442.196c-1.199,0.134-2.324,0.821-2.991,1.826"/>
								
									<path style="fill:none;stroke:#FFFFFF;stroke-width:0.5;stroke-linecap:round;stroke-linejoin:round;stroke-miterlimit:10;" d="
									M371.253,443.594c-1.199,0.134-2.324,0.821-2.992,1.826"/>
								
									<path style="fill:none;stroke:#FFFFFF;stroke-width:0.5;stroke-linecap:round;stroke-linejoin:round;stroke-miterlimit:10;" d="
									M374.035,445.023c-1.199,0.134-2.324,0.821-2.992,1.826"/>
							</g>
						</g>
						<g>
							<g>
								<path style="fill:#407BFF;" d="M424.004,413.641l-3.264,1.176c-0.739,0.266-1.287,0.886-1.509,1.639
									c-0.956,3.249-2.72,2.787-5.639,1.109c-1.356,0.317-1.168,1.937-1.13,2.377l0.759,9.756c0.055,0.818,0.763,1.436,1.58,1.38
									c0.146-0.01,0.289-0.041,0.425-0.092c3.964-1.429,5.839-2.105,10.773-3.883l15.088-5.439
									c4.113-1.482,3.472-5.935,1.639-5.708c-8.225,1.063-14.428,0.765-17.582-0.602
									C424.568,415.123,424.912,414.671,424.004,413.641z"/>
								
									<path style="fill:none;stroke:#FFFFFF;stroke-width:0.5;stroke-linecap:round;stroke-linejoin:round;stroke-miterlimit:10;" d="
									M427.178,415.78c-1.069,0.559-1.87,1.606-2.128,2.785"/>
								
									<path style="fill:none;stroke:#FFFFFF;stroke-width:0.5;stroke-linecap:round;stroke-linejoin:round;stroke-miterlimit:10;" d="
									M429.757,416.138c-1.069,0.559-1.87,1.606-2.128,2.785"/>
								
									<path style="fill:none;stroke:#FFFFFF;stroke-width:0.5;stroke-linecap:round;stroke-linejoin:round;stroke-miterlimit:10;" d="
									M432.743,416.512c-1.069,0.559-1.87,1.607-2.128,2.785"/>
							</g>
						</g>
					</g>
					<path style="fill:#263238;" d="M348.638,311.497l-4.692,0.451c0,0-0.386-3.227-0.78-5.612
						c-0.342-2.415-2.995-10.535-3.646-12.886c-13.426,1.333-36.203,0.526-36.203,0.526s-20.555,38.018-5.945,52.878
						c8.778,8.909,34.634,3.694,53.779-4.134L348.638,311.497z"/>
					<path style="opacity:0.3;enable-background:new    ;" d="M343.946,310.657l-20.586,4.294c0,0,11.266-6.11,19.806-8.591
						C343.56,308.793,343.946,310.657,343.946,310.657z"/>
				</g>
			</g>
			<g>
				<g>
					<path style="fill:#B97964;" d="M374.139,262.267c0.113-1.812-5.251,8.557-5.251,8.557l-9.058-6.395l7.211-7.254
						c0,0,7.322,4.781,7.21,4.936"/>
				</g>
				<path style="fill:#407BFF;" d="M337.779,238.791c4.852,2.378,8.532,6.609,10.245,11.734c3.072,9.193,4.406,20.233,4.406,20.233
					l11.443-10.191l8.524,6.333c0,0-11.196,16.968-18.732,23.584c-6.257,5.494-13.35-5.164-13.35-5.164l-3.081-46.795
					L337.779,238.791z"/>
				<polygon style="opacity:0.2;" points="315.66,299.546 313.199,338.128 291.134,335.497 291.134,331.532 				"/>
				<g>
					<path style="fill:#FFFFFF;" d="M304.986,300.511c-0.863-9.787-4.338-27.723-10.322-46.561
						c-1.947-6.126,5.009-12.898,5.009-12.898s4.49-0.354,5.313-0.446c0.902-0.106,1.829-0.198,2.757-0.277
						c6.99-0.58,12.714-1.001,18.946-0.645c1.568,0.092,3.175,0.224,4.756,0.356c0.51,0.053,3.818,0.103,4.314,0.156
						c0,0,8.962,10.486,9.446,17.89c0.261,4.136,2.26,5.916,2.038,15.809c-0.039,6.718-4.915,16.506-5.36,25.951L304.986,300.511z"
						/>
				</g>
				<path style="fill:#407BFF;" d="M317.203,267.622c-0.47-15.36-2.284-25.113-3.109-28.841c-0.217-0.979-1.141-1.628-2.136-1.505
					l-5.934,1.25c-5.812,1.549-8.929,0.712-12.164,5.033c-0.626,0.836-1.151,7.269-1.105,8.151
					c0.079,1.581,1.176,6.428,2.639,12.277c1.006,4.057,2.195,8.615,3.332,12.91c1.459,5.474,2.676,6.9,3.146,8.654l-15.051,44.398
					c-0.424,1.187,0.376,2.457,1.63,2.588l21.601,2.258c1.057,0.11,2.007-0.643,2.133-1.698
					C313.263,324.081,317.743,285.277,317.203,267.622z"/>
				<path style="fill:#407BFF;" d="M345.588,297.715c0,0,4.534-28.089,3.328-35.119c-1.206-7.029-11.681-24.071-11.681-24.071
					l-4.781-0.329l-5.659-2.295c0,0,13.062,15.762,16.271,27.135c2.11,7.478-2.097,31.116-1.612,36.817l2.432,11.803l6.009-0.268
					L345.588,297.715z"/>
				<g>
					<path style="fill:#407BFF;" d="M313.288,234.854c0,0,5.875,11.596,3.653,40.778l-9.762-20.978l3.534-5.732l-4.689-9.369
						c0,0,5.016-3.226,7.123-4.932L313.288,234.854z"/>
				</g>
				<g style="opacity:0.2;">
					<path d="M313.288,234.854c0,0,5.875,11.596,3.653,40.778l-9.762-20.978l3.534-5.732l-4.689-9.369c0,0,5.016-3.226,7.123-4.932
						L313.288,234.854z"/>
				</g>
				<path style="fill:#407BFF;" d="M343.37,275.802c0,0,2.186-6.435,1.787-12.374c-0.399-5.939-0.492-10.37-0.492-10.37l-6.739-4.98
					l0.887-6.072c0,0-3.249-1.995-6.268-4.039c-2.063-1.397-6.109-3.509-6.641-3.346c0,0,17.209,21.778,17.296,30.688
					C343.283,273.903,343.37,275.802,343.37,275.802z"/>
				<path style="opacity:0.3;" d="M343.37,275.802c0,0,2.186-6.435,1.787-12.374c-0.399-5.939-0.492-10.37-0.492-10.37l-6.739-4.98
					l0.887-6.072c0,0-3.249-1.995-6.268-4.039c-2.063-1.397-6.109-3.509-6.641-3.346c0,0,17.209,21.778,17.296,30.688
					C343.283,273.903,343.37,275.802,343.37,275.802z"/>
				<path style="opacity:0.3;" d="M346.679,290.734l2.347-21.663l0.868,22.367C349.894,291.438,347.641,291.326,346.679,290.734z"/>
				<path style="fill:#FFFFFF;" d="M330.247,240.428l-4.627-6.357l-2.203,3.784l-9.135-5.503l-1.134,2.269l3.245,9.52
					c0,0,8.11,3.319,8.54,3.319C325.361,247.46,330.247,240.428,330.247,240.428z"/>
				<polygon style="opacity:0.3;" points="330.46,240.726 328.566,245.41 323.858,240.726 320.654,246.226 315.87,243.882 
					320.97,247.921 323.921,241.894 329.32,246.979 				"/>
				<polygon style="opacity:0.3;" points="305.242,284.956 303.397,264.264 301.977,286.797 323.36,295.491 				"/>
				<path style="fill:#407BFF;" d="M296.781,240.726c0,0-6.79,1.666-8.096,9.082c-1.305,7.416-3.035,44.488-1.559,46.835
					c1.476,2.347,42.793,15.634,42.793,15.634l4.424-11.474l-31.212-15.098c0,0,0.254-10.594,0.509-18.848
					c0.135-4.364,0.269-8.074,0.366-9.219C304.287,254.328,296.781,240.726,296.781,240.726z"/>
				<path style="fill:#B97964;" d="M333.653,302.595c0,0,12.988,3.118,15.999,5.711c1.337,1.151,1.299,3.034,1.299,3.034
					l-21.032,0.937L333.653,302.595z"/>
				<path style="opacity:0.3;" d="M296.661,300.922c0.417,0.155,18.282,6.515,18.282,6.515v2.242l-19.194-6.064L296.661,300.922z"/>
				
					<path style="opacity:0.2;fill:none;stroke:#000000;stroke-width:0.5;stroke-linecap:round;stroke-linejoin:round;stroke-miterlimit:10;" d="
					M323.921,241.894c9.732,16.971,9.193,39.043,9.732,57.784"/>
			</g>
		</g>
		<g>
			<g>
				<g>
					<g>
						<g>
							<g>
								<g>
									<path style="fill:#B97964;" d="M367.517,258.238c0,0-1.763-2.807-1.122-5.472c0.641-2.665,0.444-4.964,1.058-6.912
										c0.614-1.948,1.706,0.583,2.014,2.048c0.308,1.464,0.673,3.121,1.735,2.711c1.062-0.409,7.237-8.01,8.774-8.41
										c1.537-0.4,0.923,1.142,0.923,1.142s1.549-1.806,2.432-1.387c0.229,0.109,0.586,0.734,0.009,1.667
										c-1.298,2.1-4.25,6.367-4.25,6.367c0.164-0.248,4.184-5.255,4.884-5.926c0.915-0.877,1.793-0.825,2.285-0.278
										c0.699,0.779-4.072,7.156-4.086,7.566c0,0,2.624-3.764,3.967-3.618c1.342,0.146-0.181,2.605-1.935,4.518
										c-1.608,1.754-4.305,5.616-6.113,7.24c-2.228,2.002-4.174,2.845-6.747,1.719
										C368.773,260.087,367.517,258.238,367.517,258.238z"/>
								</g>
							</g>
						</g>
					</g>
				</g>
			</g>
			
				<path style="opacity:0.3;fill:none;stroke:#000000;stroke-width:0.5;stroke-linecap:round;stroke-linejoin:round;stroke-miterlimit:10;" d="
				M380.651,243.541c-1.205,1.478-2.343,3.011-3.409,4.593"/>
			
				<path style="opacity:0.3;fill:none;stroke:#000000;stroke-width:0.5;stroke-linecap:round;stroke-linejoin:round;stroke-miterlimit:10;" d="
				M381.205,252.85c-1.434-2.004-3.469-3.571-5.772-4.446"/>
			
				<path style="opacity:0.3;fill:none;stroke:#000000;stroke-width:0.5;stroke-linecap:round;stroke-linejoin:round;stroke-miterlimit:10;" d="
				M371.513,251.802c0.675,0.743,1.081,1.726,1.127,2.729c0.046,1.003-0.269,2.019-0.873,2.82"/>
		</g>
	</g>
</g>
<g id="Character_1">
	<g>
		<g>
			<rect x="182.509" y="294.586" style="fill:#263238;" width="4.382" height="156.17"/>
			
				<rect x="153.326" y="294.586" transform="matrix(0.9914 0.1309 -0.1309 0.9914 50.1162 -17.1494)" style="fill:#263238;" width="4.382" height="156.17"/>
			
				<rect x="211.189" y="294.352" transform="matrix(0.993 -0.1184 0.1184 0.993 -42.59 27.8798)" style="fill:#263238;" width="4.382" height="156.17"/>
			<rect x="182.509" y="294.586" style="opacity:0.5;fill:#FFFFFF;" width="4.382" height="156.17"/>
			
				<rect x="153.326" y="294.586" transform="matrix(0.9914 0.1309 -0.1309 0.9914 50.1162 -17.1494)" style="opacity:0.5;fill:#FFFFFF;" width="4.382" height="156.17"/>
			
				<rect x="211.189" y="294.352" transform="matrix(0.993 -0.1184 0.1184 0.993 -42.59 27.8798)" style="opacity:0.5;fill:#FFFFFF;" width="4.382" height="156.17"/>
			<rect x="165.597" y="284.939" style="fill:#263238;" width="38.179" height="9.29"/>
			<path style="fill:#263238;" d="M207.704,292.422c0,2.114-1.714,3.828-3.828,3.828s-3.828-1.714-3.828-3.828
				c0-2.114,1.714-3.828,3.828-3.828S207.704,290.308,207.704,292.422z"/>
			<path style="fill:#263238;" d="M188.528,292.422c0,2.114-1.714,3.828-3.828,3.828c-2.114,0-3.828-1.714-3.828-3.828
				c0-2.114,1.714-3.828,3.828-3.828C186.814,288.594,188.528,290.308,188.528,292.422z"/>
			<circle style="fill:#263238;" cx="166.115" cy="292.422" r="3.828"/>
			<path style="opacity:0.7;fill:#FFFFFF;" d="M207.704,292.422c0,2.114-1.714,3.828-3.828,3.828s-3.828-1.714-3.828-3.828
				c0-2.114,1.714-3.828,3.828-3.828S207.704,290.308,207.704,292.422z"/>
			<path style="opacity:0.7;fill:#FFFFFF;" d="M188.528,292.422c0,2.114-1.714,3.828-3.828,3.828c-2.114,0-3.828-1.714-3.828-3.828
				c0-2.114,1.714-3.828,3.828-3.828C186.814,288.594,188.528,290.308,188.528,292.422z"/>
			<circle style="opacity:0.7;fill:#FFFFFF;" cx="166.115" cy="292.422" r="3.828"/>
			<g>
				<polygon style="fill:#263238;" points="260.136,174.469 238.841,186.696 238.841,211.012 261.169,218.689 				"/>
				<polygon style="fill:#263238;" points="157.459,180.351 200.005,180.351 205.298,183.88 218.238,183.88 218.238,211.721 
					212.357,211.721 201.769,218.387 206.083,218.387 206.083,223.68 202.75,227.406 165.694,227.406 163.013,221.201 
					157.459,221.119 157.459,218.387 160.596,218.387 160.596,212.113 157.459,212.113 				"/>
				<path style="fill:#263238;" d="M187.216,176.419l-2.884,3.932h15.979v-2.015h25.194v-0.978c0-1.595-1.293-2.889-2.888-2.889
					h-31.553C189.543,174.469,188.114,175.193,187.216,176.419z"/>
				<rect x="224.185" y="186.349" style="fill:#263238;" width="14.656" height="24.662"/>
				<rect x="235.494" y="186.349" style="opacity:0.3;" width="3.951" height="24.662"/>
				<polygon style="fill:#263238;" points="234.166,211.012 234.166,221.198 252.463,221.198 239.446,211.012 				"/>
				<polygon style="fill:#263238;" points="234.166,186.472 234.166,172.945 252.463,172.945 239.446,186.472 				"/>
				<polygon style="opacity:0.2;fill:#FFFFFF;" points="157.459,221.119 170.822,221.279 170.822,218.387 167.443,218.387 
					167.443,212.107 170.491,212.107 170.491,180.351 157.459,180.351 157.459,212.113 160.596,212.113 160.596,218.387 
					157.459,218.387 				"/>
				<rect x="159.094" y="183.603" style="fill:#407BFF;" width="9.476" height="9.476"/>
				<polygon style="opacity:0.3;" points="163.013,221.201 206.083,221.505 206.083,223.68 202.75,227.406 165.694,227.406 				"/>
				<polygon style="opacity:0.3;" points="170.491,212.107 212.357,211.721 201.769,218.387 167.443,218.387 167.443,212.107 				
					"/>
				<rect x="181.045" y="227.406" style="fill:#263238;" width="7.31" height="57.696"/>
				<rect x="181.045" y="227.406" style="opacity:0.5;fill:#FFFFFF;" width="7.31" height="57.696"/>
				<path style="fill:#263238;" d="M224.165,206.924h-5.927v-16.487h5.927c4.553,0,8.243,3.691,8.243,8.243l0,0
					C232.409,203.233,228.718,206.924,224.165,206.924z"/>
				<path style="opacity:0.3;" d="M224.165,206.924h-5.927v-16.487h5.927c4.553,0,8.243,3.691,8.243,8.243l0,0
					C232.409,203.233,228.718,206.924,224.165,206.924z"/>
				<polygon style="opacity:0.1;fill:#FFFFFF;" points="205.298,183.88 170.491,183.88 170.491,180.351 199.954,180.351 				"/>
				<g>
					<polygon style="fill:#263238;" points="168.569,180.351 170.085,170.11 175.071,170.11 177.962,174.469 177.962,180.351 					
						"/>
					<polygon style="opacity:0.2;fill:#FFFFFF;" points="168.569,180.351 170.085,170.11 175.071,170.11 177.962,174.469 
						177.962,180.351 					"/>
					<polygon style="fill:#263238;" points="158.091,180.351 159.607,170.11 164.593,170.11 167.484,174.469 167.484,180.351 					
						"/>
					<polygon style="fill:#263238;" points="141.654,157.282 141.654,165.808 148.369,172.945 171.68,172.945 171.68,157.282 					
						"/>
					<rect x="150.43" y="158.646" style="fill:#407BFF;" width="13.711" height="13.679"/>
					<polygon style="opacity:0.2;fill:#FFFFFF;" points="150.43,169.33 158.091,165.114 158.091,158.646 150.43,158.646 					"/>
					<polygon style="fill:#263238;" points="157.459,157.282 157.459,165.775 161.775,172.945 175.071,172.945 175.071,157.282 
											"/>
					<polygon style="opacity:0.2;fill:#FFFFFF;" points="157.459,157.282 157.459,165.775 161.775,172.945 175.071,172.945 
						175.071,157.282 					"/>
				</g>
				<rect x="174.559" y="188.877" style="opacity:0.1;fill:#FFFFFF;" width="12.337" height="5.006"/>
				<rect x="189.042" y="188.877" style="opacity:0.1;fill:#FFFFFF;" width="5.006" height="5.006"/>
				<rect x="195.747" y="188.877" style="opacity:0.1;fill:#FFFFFF;" width="5.006" height="5.006"/>
				<rect x="174.559" y="206.412" style="opacity:0.3;" width="43.68" height="1.743"/>
				<polygon style="opacity:0.3;" points="181.045,241.512 188.355,235.95 188.355,227.406 181.045,227.406 				"/>
				<polygon style="fill:#263238;" points="159.094,193.078 160.205,193.078 160.24,184.551 168.569,184.575 168.569,183.603 
					159.094,183.603 				"/>
				<g>
					<rect x="142.223" y="227.009" style="fill:#263238;" width="6.197" height="18.043"/>
					<rect x="145.321" y="227.009" style="fill:#263238;" width="36.816" height="2.552"/>
					<path style="fill:#263238;" d="M188.971,228.285c0,2.441-1.979,4.42-4.42,4.42c-2.441,0-4.42-1.979-4.42-4.42
						c0-2.441,1.979-4.42,4.42-4.42C186.992,223.865,188.971,225.844,188.971,228.285z"/>
				</g>
			</g>
		</g>
		<g>
			<g>
				<path style="fill:#263238;" d="M115.408,159.131c0,0.883,0.387,1.549,0.945,1.642c0.558,0.093,1.069-0.65,1.115-1.549
					c0.046-0.898-0.372-1.549-0.929-1.642C115.981,157.489,115.516,158.279,115.408,159.131z"/>
				<path style="fill:#E4897B;" d="M115.764,159.007c0.309,2.846,1.013,5.634,2.091,8.286c-1.396,0.513-2.947,0.389-4.244-0.341
					L115.764,159.007z"/>
				<path style="fill:#263238;" d="M113.813,156.296c-0.114,0.011-0.229-0.016-0.325-0.077c-0.201-0.198-0.203-0.522-0.005-0.723
					c0.002-0.002,0.004-0.003,0.005-0.005c1.033-1.287,2.627-1.991,4.275-1.889c0.273,0.024,0.474,0.265,0.45,0.538
					c0,0.001,0,0.003,0,0.004l0,0c-0.047,0.275-0.295,0.469-0.573,0.449l0,0c-1.305-0.059-2.558,0.518-3.361,1.549
					C114.16,156.271,113.984,156.33,113.813,156.296z"/>
				<path style="fill:#EEC1BB;" d="M113.875,172.295c-0.195,0.532-0.428,1.05-0.697,1.549c-1.438,2.764-3.686,5.023-6.443,6.474
					c-0.692,0.371-1.411,0.687-2.153,0.945c-3.954,1.443-8.349,1.022-11.957-1.146c-1.603-0.971-2.998-2.25-4.104-3.764
					c-4.646-6.335-3.671-12.715-2.772-23.65c0.562-8.295,7.743-14.564,16.038-14.002c2.324,0.157,4.58,0.852,6.59,2.029
					C118.366,146.508,117.592,162.863,113.875,172.295z"/>
				<path style="opacity:0.2;enable-background:new    ;" d="M105.879,180.555c-0.6,0.322-1.225,0.596-1.868,0.82
					c-3.431,1.252-7.244,0.887-10.375-0.994c0.579-1.072,1.292-2.066,2.123-2.957C99.364,177.47,102.878,178.558,105.879,180.555z"
					/>
				<path style="fill:#EEC1BB;" d="M80.661,180.674c1.781,7.063,13.652,11.276,13.652,11.276s8.131,2.679,8.116-0.434
					c-3.609-3.345-4.321-6.536-3.531-9.494c0.547-1.797,1.447-3.466,2.649-4.91c0.644-0.821,1.332-1.607,2.06-2.354l-6.954-19.128
					C93.957,163.483,87.049,175.749,80.661,180.674z"/>
				<path style="fill:#263238;" d="M105.976,135.558c0,0,1.73,0.23,6.005,5.527c3.578,4.476,0.361,5.439,2.157,10.813
					c1.797,5.374-2.261,9.788-2.261,9.788s-3.098,4.801-7.202,3.887c0,0-3.949,3.624-4.011,7.93
					c-0.062,4.306-9.293-0.728-15.41,2.246c0,0-5.545-2.803-8.131-12.777c-1.01-4.362-1.189-8.876-0.527-13.304
					c0.503-4.674,2.856-8.953,6.536-11.879C89.481,132.306,103.095,131.036,105.976,135.558z"/>
				<path style="fill:#EEC1BB;" d="M102.878,162.894c0.125,2.126,1.2,4.083,2.927,5.328c2.075,1.255,3.965-1.657,4.104-4.971
					c0.109-2.927-0.821-7.217-3.268-7.001C104.195,156.467,102.522,159.874,102.878,162.894z"/>
				<path style="fill:#407BFF;" d="M96.611,132.755c-19.926,0.96-21.275,15.988-20.404,25.58c0,0,3.387,4.712,15.875,3.871
					c12.488-0.842,24.932-8.078,24.932-8.078S116.126,131.815,96.611,132.755z M78.705,156.604c0,0-0.108-3.336,5.812-3.229
					s7.236,5.489,7.236,5.489C83.599,160.264,79.028,156.82,78.705,156.604z"/>
				<path style="fill:#407BFF;" d="M110.453,149.717c0,0,9.674-3.814,12.687-2.2c3.013,1.614,1.258,4.118-6.968,7.062
					L110.453,149.717z"/>
			</g>
			<g>
				<g>
					<g>
						<g>
							<g>
								<g>
									<g>
										<g>
											<g>
												<path style="fill:#EEC1BB;" d="M66.491,425.887l-0.021,19.625l9.869,0.708l3.469-18.437
													C75.294,424.774,70.852,424.055,66.491,425.887z"/>
											</g>
										</g>
									</g>
								</g>
								<g>
									<g>
										<g>
											<g>
												<g>
													<path style="fill:#263238;" d="M66.813,443.464c-0.971,2.59-1.035,13.187-1.035,13.187l20.919,0.023
														c1.243-3.832-0.68-6.448-3.12-6.795c-1.049-0.148-2.282-1.225-3.181-2.165c-0.006-0.122-1.285-6.009-2.076-6.29
														c0,0-0.545-0.612-1.009-0.001c-0.464,0.611-0.867,2.6-0.867,2.6C73.18,439.969,69.979,440.51,66.813,443.464z"/>
												</g>
											</g>
										</g>
									</g>
								</g>
								<g>
									<g>
										<g>
											<g>
												<path style="fill:#FFFFFF;" d="M66.56,446.54c2.364-0.871,4.9-0.54,6.961,0.908c0.361,0.253,0.703-0.339,0.345-0.59
													c-2.196-1.542-4.97-1.904-7.488-0.976C65.969,446.032,66.146,446.693,66.56,446.54L66.56,446.54z"/>
											</g>
										</g>
									</g>
								</g>
								<g>
									<g>
										<g>
											<path style="fill:#FFFFFF;" d="M86.635,455.124C86.635,455.124,86.635,455.124,86.635,455.124l-20.612-0.022
												c-0.189,0-0.342-0.153-0.341-0.342c0-0.189,0.153-0.341,0.342-0.341c0,0,0,0,0,0l20.611,0.022
												c0.189,0,0.342,0.153,0.341,0.342C86.977,454.971,86.824,455.124,86.635,455.124z"/>
										</g>
									</g>
								</g>
							</g>
							<g>
								<g>
									<g>
										<g>
											<path style="fill:#263238;" d="M62.831,435.558l21.03,1.034c4.718-14.119,9.382-64.744,9.864-79.942
												c0.576-18.16,7.618-63.738,1.391-73.222c-6.227-9.484-34.392-1.931-34.392-1.931s3.51,55.497,2.106,73.196
												C61.615,370.032,59.733,415.123,62.831,435.558z"/>
										</g>
									</g>
								</g>
							</g>
							<g>
								<polygon style="fill:#407BFF;" points="86.131,431.477 84.764,437.964 61.974,437.28 61.138,431.051 								"/>
							</g>
						</g>
						<g>
							<g>
								<g>
									<g>
										<g>
											<g>
												<path style="fill:#EEC1BB;" d="M109.067,423.327l-0.024,22.149l9.496,0.723l4.671-20.733
													C119.398,422.634,114.97,421.246,109.067,423.327z"/>
											</g>
										</g>
									</g>
								</g>
								<g>
									<g>
										<g>
											<g>
												<g>
													<path style="fill:#263238;" d="M109.045,443.509c-0.971,2.59-1.035,13.187-1.035,13.187l24.032,0.026
														c1.243-3.832-1.354-6.104-3.794-6.452c-1.049-0.148-4.722-1.572-5.621-2.512c-0.006-0.122-1.285-6.008-2.076-6.29
														c0,0-0.545-0.612-1.009-0.001c-0.464,0.611-0.867,2.6-0.867,2.6C115.411,440.015,112.211,440.556,109.045,443.509z"/>
												</g>
											</g>
										</g>
									</g>
								</g>
								<g>
									<g>
										<g>
											<g>
												<path style="fill:#FFFFFF;" d="M108.791,446.586c2.364-0.871,4.9-0.54,6.961,0.907c0.361,0.253,0.703-0.339,0.345-0.59
													c-2.196-1.542-4.97-1.904-7.488-0.976C108.2,446.078,108.377,446.739,108.791,446.586L108.791,446.586z"/>
											</g>
										</g>
									</g>
								</g>
								<g>
									<g>
										<g>
											<path style="fill:#FFFFFF;" d="M132.045,455.173C132.045,455.173,132.045,455.173,132.045,455.173l-23.79-0.026
												c-0.189,0-0.342-0.153-0.341-0.342c0-0.189,0.153-0.341,0.342-0.341c0,0,0,0,0,0l23.79,0.026
												c0.189,0,0.342,0.153,0.341,0.342C132.387,455.02,132.234,455.173,132.045,455.173z"/>
										</g>
									</g>
								</g>
							</g>
							<g>
								<g>
									<g>
										<g>
											<path style="fill:#263238;" d="M104.832,435.558l20.849,1.034c2.538-15.63,12.735-72.55,11.898-83.454
												c-1.023-13.318-13.098-70.966-17.589-75.411c-4.49-4.445-37.366,7.076-37.366,7.076s13.511,49.573,24.164,71.014
												C109.002,360.271,103.12,416.548,104.832,435.558z"/>
										</g>
									</g>
								</g>
							</g>
							<g>
								<polygon style="fill:#407BFF;" points="128.065,431.963 127.001,437.964 103.831,436.592 103.365,430.309 								"/>
							</g>
						</g>
						<g style="opacity:0.3;">
							<g>
								<path style="fill:#FFFFFF;" d="M90.609,317.978c-0.399-0.81-0.8-1.619-1.17-2.443c-1.982-4.405-3.48-8.991-4.67-13.669
									c-3.429-0.338-6.817-1.032-10.119-2.076c-0.419-0.132-0.239-0.792,0.182-0.659c5.221,1.651,10.647,2.417,16.121,2.275
									c0.441-0.011,0.439,0.672,0,0.684c-1.826,0.047-3.648-0.015-5.46-0.168c1.193,4.647,2.687,9.207,4.677,13.578
									c1.993,4.377,4.41,8.541,6.907,12.646c0.229,0.377-0.362,0.72-0.59,0.345c-1.839-3.024-3.629-6.084-5.244-9.234
									c-0.149,3.756-0.601,15.365-1.109,30.744c-0.877,26.541-7.616,69.693-9.498,81.332h-0.693
									c1.854-11.454,8.629-54.764,9.508-81.354C90.05,331.798,90.572,318.878,90.609,317.978z"/>
							</g>
							<g>
								<path style="fill:#FFFFFF;" d="M65.69,354.217c6.063-0.328,12.135-0.165,18.171,0.489c0.434,0.047,0.437,0.731,0,0.684
									c-6.037-0.654-12.108-0.817-18.171-0.489C65.249,354.925,65.252,354.241,65.69,354.217z"/>
							</g>
							<g>
								<path style="fill:#FFFFFF;" d="M133.835,354.277c-0.471-8.331-10.848-43.698-10.953-44.055
									c-0.053-0.181,0.05-0.371,0.231-0.424c0.181-0.053,0.371,0.05,0.424,0.232c0.429,1.458,10.505,35.799,10.98,44.209
									c0.408,7.233-10.411,74.108-10.872,76.952c-0.027,0.168-0.172,0.287-0.337,0.287c-0.018,0-0.037-0.001-0.055-0.004
									c-0.186-0.03-0.313-0.206-0.283-0.392C123.083,430.384,134.239,361.436,133.835,354.277z"/>
							</g>
							<g>
								<path style="fill:#FFFFFF;" d="M127.938,306.56c-7.817-2.951-10.344-11.526-12.206-18.861
									c-0.109-0.427,0.551-0.608,0.659-0.182c1.792,7.058,4.171,15.53,11.728,18.383
									C128.528,306.055,128.35,306.716,127.938,306.56z"/>
							</g>
							<g>
								<path style="fill:#FFFFFF;" d="M110.438,354.875c5.081-0.32,10.162-0.639,15.242-0.959c0.44-0.028,0.437,0.656,0,0.684
									c-5.081,0.32-10.162,0.639-15.242,0.959C109.998,355.586,110.001,354.902,110.438,354.875z"/>
							</g>
						</g>
					</g>
				</g>
			</g>
			<g>
				<path style="fill:#407BFF;" d="M73.413,184.788c-0.856,0.07-14.834,4.065-16.196,14.966c-1.362,10.9,2.566,70.073,2.607,71.587
					c0.041,1.514-0.313,10.9,1,12.717c1.312,1.817,16.452,6.207,35.225,1.665c18.773-4.542,25.024-4.923,25.986-7.76
					c0.962-2.838-4.456-23.276-4.169-26.607c0.287-3.331-8.633-58.065-8.633-58.065S88.856,183.529,73.413,184.788z"/>
				<path style="opacity:0.3;" d="M98.305,216.755c0,0,0.429,42.536,5.794,46.682c5.365,4.146,15.86,0.21,15.86,0.21l-4.587-29.391
					L98.305,216.755z"/>
				<path style="fill:#407BFF;" d="M76.048,184.678c0,0,3.063-4.746,3.596-5.279s11.853,1.598,16.647,3.596
					c4.794,1.998,5.061,4.661,5.061,4.661v2.818L76.048,184.678z"/>
				<path style="opacity:0.3;" d="M101.351,190.039c0,0-7.978-3.124-13.985-4.344c-6.007-1.22-11.319-1.017-11.319-1.017
					L101.351,190.039z"/>
			</g>
			<g>
				<path style="fill:#EEC1BB;" d="M104.099,245.886c0,0,1.712,16.147,10.708,15.189c8.996-0.958,23.311-11.388,23.311-11.388
					s6.485,4.272,7.99,2.767c1.505-1.505,1.368-3.114,1.368-3.114s1.505-2.086,1.368-3.454c-0.137-1.368,0.958-2.737,0.958-4.516
					s-0.547-3.713-1.505-3.772c-0.958-0.059-6.074-0.006-6.074-0.006v-3.337c0,0-5.557,2.463-6.378,4.652
					c-0.821,2.189-1.232,2.737-1.232,2.737l-13.194,1.593l-0.224-4.639L104.099,245.886z"/>
				<path style="fill:#407BFF;" d="M107.287,193.09c0,0-9.799,6.285-9.532,16.273c0.266,9.988,4.763,38.754,4.763,38.754
					s7.196,0.07,13.202-2.752c6.315-2.968,8.67-6.437,8.67-6.437s-3.429-22.441-5.327-30.897
					C117.165,199.576,112.538,192.755,107.287,193.09z"/>
				<g>
					<path style="opacity:0.3;" d="M121.419,243.237l-2.215,3.872c0,0,2.148-0.579,3.07-3.975L121.419,243.237z"/>
				</g>
			</g>
		</g>
	</g>
</g>
</svg>
